<svg width="18" height="17" viewBox="0 0 18 17" fill="none" xmlns="http://www.w3.org/2000/svg">
<path d="M17.3376 6.70125H16.6624V6.66667H9.11799V10H13.8554C13.1643 11.9404 11.3071 13.3333 9.11799 13.3333C6.34041 13.3333 4.08841 11.0946 4.08841 8.33333C4.08841 5.57208 6.34041 3.33333 9.11799 3.33333C10.4001 3.33333 11.5666 3.81417 12.4547 4.59958L14.8257 2.2425C13.3286 0.855417 11.326 0 9.11799 0C4.48868 0 0.735352 3.73125 0.735352 8.33333C0.735352 12.9354 4.48868 16.6667 9.11799 16.6667C13.7473 16.6667 17.5006 12.9354 17.5006 8.33333C17.5006 7.77458 17.4428 7.22917 17.3376 6.70125Z" fill="#FFC107"/>
<path d="M1.70215 4.45458L4.45627 6.4625C5.20148 4.62833 7.00627 3.33333 9.11827 3.33333C10.4004 3.33333 11.5668 3.81417 12.455 4.59958L14.826 2.2425C13.3289 0.855417 11.3263 0 9.11827 0C5.8985 0 3.10624 1.80708 1.70215 4.45458Z" fill="#FF3D00"/>
<path d="M9.11841 16.6666C11.2836 16.6666 13.2511 15.8429 14.7386 14.5033L12.1441 12.3208C11.2742 12.9785 10.2113 13.3342 9.11841 13.3333C6.93809 13.3333 5.08678 11.9512 4.38934 10.0225L1.65576 12.1162C3.04309 14.815 5.8605 16.6666 9.11841 16.6666Z" fill="#4CAF50"/>
<path d="M17.3378 6.70158H16.6625V6.66699H9.11816V10.0003H13.8556C13.525 10.9238 12.9295 11.7308 12.1426 12.3216L12.1439 12.3207L14.7383 14.5032C14.5547 14.6691 17.5008 12.5003 17.5008 8.33366C17.5008 7.77491 17.443 7.22949 17.3378 6.70158Z" fill="#1976D2"/>
</svg>
