<svg width="441" height="334" viewBox="0 0 441 334" fill="none" xmlns="http://www.w3.org/2000/svg">
<g clip-path="url(#clip0_433:621)">
<path d="M87.8663 334C136.394 334 175.733 330.748 175.733 326.736C175.733 322.724 136.394 319.471 87.8663 319.471C39.3391 319.471 0 322.724 0 326.736C0 330.748 39.3391 334 87.8663 334Z" fill="#E6E6E6"/>
<path d="M67.1631 74.1089C82.4545 67.0289 101.5 71.5147 120.1 74.628C120.273 70.8578 122.371 66.2692 120.174 63.6389C117.504 60.4433 117.749 57.0856 119.356 53.7086C123.465 45.073 117.578 35.8843 111.635 28.244C110.295 26.5258 108.602 25.1758 106.693 24.3036C104.784 23.4314 102.713 23.0617 100.649 23.2244L89.6389 24.0805C86.9598 24.2888 84.403 25.3828 82.3107 27.2161C80.2184 29.0494 78.6904 31.5346 77.931 34.3391V34.3391C75.3021 38.2311 73.8951 42.1124 74.7809 45.9734C70.8433 48.9026 70.1817 52.4386 71.9512 56.4247C73.4516 58.9345 73.4356 61.3776 71.8829 63.753C69.8438 66.7815 68.2819 70.1584 67.2615 73.7453L67.1631 74.1089Z" fill="#2F2E41"/>
<path d="M430.55 288.738H118.893C116.121 288.738 113.463 287.539 111.504 285.406C109.544 283.273 108.443 280.379 108.443 277.362C221.419 263.069 332.271 263.069 441 277.362C441 280.379 439.899 283.273 437.94 285.406C435.98 287.539 433.322 288.738 430.55 288.738Z" fill="#2F2E41"/>
<path d="M441 278.031L108.443 277.362L146.985 206.767L147.17 206.432V50.8488C147.169 48.9603 147.511 47.0903 148.175 45.3456C148.839 43.6008 149.812 42.0155 151.038 40.6802C152.265 39.3449 153.721 38.2856 155.324 37.563C156.927 36.8404 158.645 36.4686 160.38 36.4688H387.219C388.954 36.4686 390.672 36.8404 392.275 37.563C393.878 38.2856 395.334 39.3449 396.561 40.6802C397.787 42.0155 398.76 43.6008 399.424 45.3456C400.088 47.0903 400.43 48.9603 400.43 50.8488V207.503L441 278.031Z" fill="#3F3D56"/>
<path d="M160.078 46.5059C158.937 46.5073 157.843 47.0012 157.037 47.8793C156.23 48.7575 155.776 49.948 155.775 51.1899V193.049C155.776 194.291 156.23 195.482 157.037 196.36C157.843 197.238 158.937 197.732 160.078 197.733H389.364C390.505 197.732 391.599 197.238 392.405 196.36C393.212 195.482 393.666 194.291 393.667 193.049V51.1899C393.666 49.9481 393.212 48.7575 392.405 47.8794C391.599 47.0013 390.505 46.5073 389.364 46.5059H160.078Z" fill="white"/>
<path d="M161.039 216.47C160.686 216.47 160.341 216.581 160.044 216.788C159.748 216.995 159.511 217.29 159.363 217.638L147.487 245.742C147.358 246.048 147.301 246.385 147.323 246.72C147.344 247.056 147.443 247.381 147.61 247.664C147.776 247.948 148.006 248.181 148.277 248.343C148.549 248.504 148.853 248.589 149.162 248.589H398.91C399.224 248.589 399.533 248.501 399.808 248.335C400.082 248.168 400.313 247.928 400.478 247.637C400.644 247.346 400.738 247.013 400.752 246.672C400.766 246.33 400.699 245.99 400.559 245.684L387.65 217.579C387.498 217.245 387.262 216.964 386.971 216.768C386.68 216.572 386.343 216.469 386.001 216.47H161.039Z" fill="#2F2E41"/>
<path d="M273.799 44.1635C275.327 44.1635 276.566 42.8153 276.566 41.1523C276.566 39.4893 275.327 38.1411 273.799 38.1411C272.272 38.1411 271.033 39.4893 271.033 41.1523C271.033 42.8153 272.272 44.1635 273.799 44.1635Z" fill="white"/>
<path d="M249.251 253.942C248.846 253.942 248.452 254.088 248.13 254.357C247.808 254.625 247.577 255.001 247.471 255.427L244.492 267.472C244.418 267.769 244.408 268.081 244.463 268.384C244.518 268.686 244.636 268.97 244.808 269.215C244.981 269.46 245.202 269.658 245.456 269.794C245.71 269.93 245.989 270.001 246.272 270.001H302.926C303.22 270.001 303.51 269.925 303.771 269.778C304.032 269.632 304.258 269.419 304.428 269.158C304.599 268.898 304.709 268.596 304.751 268.279C304.793 267.963 304.764 267.64 304.668 267.337L300.838 255.293C300.713 254.898 300.477 254.556 300.165 254.314C299.853 254.072 299.479 253.942 299.096 253.942H249.251Z" fill="#2F2E41"/>
<path d="M400.429 204.09V206.767H146.985L147.176 206.432V204.09H400.429Z" fill="#2F2E41"/>
<path d="M393.36 93.6808C417.125 93.6808 436.39 72.7096 436.39 46.8404C436.39 20.9712 417.125 0 393.36 0C369.596 0 350.331 20.9712 350.331 46.8404C350.331 72.7096 369.596 93.6808 393.36 93.6808Z" fill="#58AFC4"/>
<path d="M411.187 67.2495H375.534C374.882 67.2488 374.257 66.9665 373.796 66.4647C373.335 65.9629 373.075 65.2825 373.075 64.5729V41.1527C373.075 40.443 373.335 39.7627 373.796 39.2609C374.257 38.7591 374.882 38.4768 375.534 38.4761H411.187C411.839 38.4768 412.464 38.7591 412.925 39.2609C413.386 39.7627 413.645 40.443 413.646 41.1527V64.5729C413.645 65.2825 413.386 65.9629 412.925 66.4647C412.464 66.9666 411.839 67.2488 411.187 67.2495ZM375.534 41.1527V64.5729H411.189L411.187 41.1527L375.534 41.1527Z" fill="white"/>
<path d="M404.425 41.1528H382.295V30.4465C382.295 22.6918 386.949 17.0635 393.36 17.0635C399.771 17.0635 404.425 22.6918 404.425 30.4465L404.425 41.1528ZM384.754 38.4762H401.966V30.4465C401.966 24.1428 398.427 19.7401 393.36 19.7401C388.293 19.7401 384.754 24.1428 384.754 30.4465L384.754 38.4762Z" fill="white"/>
<path d="M393.36 54.8703C394.718 54.8703 395.819 53.6719 395.819 52.1937C395.819 50.7154 394.718 49.5171 393.36 49.5171C392.002 49.5171 390.901 50.7154 390.901 52.1937C390.901 53.6719 392.002 54.8703 393.36 54.8703Z" fill="white"/>
<path d="M363.322 149.616H186.121C185.251 149.615 184.417 149.238 183.802 148.569C183.186 147.899 182.84 146.991 182.839 146.044V98.1952C182.84 97.2481 183.186 96.3402 183.802 95.6705C184.417 95.0009 185.251 94.6242 186.121 94.623H363.322C364.192 94.6242 365.026 95.0009 365.641 95.6705C366.256 96.3402 366.602 97.2481 366.603 98.1952V146.044C366.602 146.991 366.256 147.899 365.641 148.569C365.026 149.238 364.192 149.615 363.322 149.616V149.616ZM186.121 96.0519C185.599 96.0525 185.098 96.2785 184.729 96.6803C184.36 97.0822 184.153 97.6269 184.152 98.1952V146.044C184.153 146.612 184.36 147.157 184.729 147.559C185.098 147.961 185.599 148.187 186.121 148.187H363.322C363.844 148.187 364.344 147.961 364.713 147.559C365.082 147.157 365.29 146.612 365.29 146.044V98.1952C365.29 97.6269 365.082 97.0821 364.713 96.6803C364.344 96.2785 363.844 96.0525 363.322 96.0519L186.121 96.0519Z" fill="#E6E6E6"/>
<path d="M213.654 134.834C221.037 134.834 227.021 128.32 227.021 120.283C227.021 112.247 221.037 105.732 213.654 105.732C206.272 105.732 200.287 112.247 200.287 120.283C200.287 128.32 206.272 134.834 213.654 134.834Z" fill="#E6E6E6"/>
<path d="M244.526 110.583C244.233 110.583 243.943 110.645 243.672 110.766C243.401 110.888 243.155 111.067 242.948 111.292C242.741 111.517 242.577 111.785 242.464 112.079C242.352 112.374 242.294 112.689 242.294 113.008C242.294 113.327 242.352 113.643 242.464 113.937C242.577 114.232 242.741 114.499 242.948 114.724C243.155 114.95 243.401 115.128 243.672 115.25C243.943 115.371 244.233 115.434 244.526 115.433H349.553C350.143 115.433 350.71 115.178 351.128 114.723C351.546 114.268 351.78 113.651 351.78 113.008C351.78 112.365 351.546 111.748 351.128 111.293C350.71 110.839 350.143 110.583 349.553 110.583H244.526Z" fill="#E6E6E6"/>
<path d="M244.526 125.134C243.935 125.134 243.368 125.389 242.95 125.844C242.533 126.299 242.298 126.916 242.298 127.559C242.298 128.202 242.533 128.819 242.95 129.274C243.368 129.729 243.935 129.984 244.526 129.984H289.719C290.31 129.984 290.877 129.729 291.294 129.274C291.712 128.819 291.947 128.202 291.947 127.559C291.947 126.916 291.712 126.299 291.294 125.844C290.877 125.389 290.31 125.134 289.719 125.134H244.526Z" fill="#E6E6E6"/>
<path d="M146.549 126.115L113.792 145.073L113.377 129.275C124.069 127.332 134.241 123.949 143.646 118.442L147.072 109.228C147.445 108.224 148.052 107.343 148.833 106.672C149.613 106 150.541 105.561 151.524 105.397C152.508 105.234 153.514 105.351 154.443 105.739C155.372 106.126 156.193 106.77 156.824 107.607V107.607C157.748 108.832 158.21 110.393 158.116 111.974C158.023 113.555 157.38 115.039 156.319 116.124L146.549 126.115Z" fill="#FFB8B8"/>
<path d="M66.5109 235.568C66.2719 234.614 66.2212 233.616 66.362 232.639C66.5028 231.662 66.832 230.728 67.328 229.9L74.5237 217.879C76.2257 215.035 78.8372 212.982 81.8516 212.116C84.866 211.25 88.0684 211.634 90.8374 213.194V213.194C87.8132 218.797 88.2348 223.713 91.8818 227.985C86.2202 230.994 80.9876 234.877 76.3461 239.514C75.4988 240.143 74.5256 240.542 73.5078 240.679C72.49 240.815 71.4569 240.685 70.4947 240.299C69.5324 239.913 68.6689 239.282 67.9759 238.459C67.2829 237.636 66.7806 236.645 66.5109 235.568V235.568Z" fill="#2F2E41"/>
<path d="M148.04 219.85C146.952 221.825 145.415 223.463 143.577 224.606C141.739 225.748 139.662 226.358 137.546 226.375L89.7421 226.769L87.6689 213.68L108.816 206.909L90.9861 192.014L110.474 167.189L145.871 203.102C147.94 205.201 149.284 208.009 149.679 211.058C150.074 214.106 149.495 217.21 148.04 219.85V219.85Z" fill="white"/>
<path d="M82.2791 309.37H71.0837C61.0319 234.366 50.8001 159.153 81.0352 131.08L116.695 137.399L112.134 170.349L92.2306 195.174L82.2791 309.37Z" fill="white"/>
<path d="M92.1203 326.36C91.2439 326.621 90.3268 326.676 89.4294 326.523C88.5319 326.369 87.6745 326.011 86.9133 325.471L74.7574 323.693C72.1454 321.84 70.2586 318.998 69.4631 315.716C68.6677 312.435 69.0203 308.949 70.4526 305.935C75.6004 309.226 80.1162 308.767 84.0404 304.797C86.8132 310.891 91.3817 310.52 95.7447 315.654C96.3225 316.576 96.6893 317.636 96.8148 318.744C96.9403 319.852 96.8208 320.976 96.4662 322.024C96.1116 323.071 95.5322 324.011 94.7762 324.766C94.0203 325.52 93.1097 326.067 92.1203 326.36V326.36Z" fill="#2F2E41"/>
<path d="M108.816 80.9783L88.084 75.5619C91.5273 67.8895 91.8108 59.3525 90.1572 50.2853L104.255 49.834C104.697 61.1092 106.033 71.6431 108.816 80.9783Z" fill="#FFB8B8"/>
<path d="M114.514 150.99C99.4219 162.185 88.7581 151.373 80.6204 134.691C81.7512 124.483 79.9203 112.268 76.5292 98.9948C75.0211 93.1405 75.5842 86.8833 78.1072 81.4588C80.6302 76.0342 84.9298 71.8365 90.1572 69.6943V69.6943L107.987 77.819C123.126 91.2523 126.106 105.803 120.426 121.15L114.514 150.99Z" fill="#58AFC4"/>
<path d="M71.0834 92.2624L54.4976 101.741L83.9374 120.698L88.0337 131.698C88.3071 132.432 88.4403 133.219 88.4252 134.011C88.41 134.803 88.2469 135.583 87.9456 136.304C87.6444 137.025 87.2114 137.672 86.673 138.205C86.1346 138.738 85.5022 139.146 84.8142 139.405V139.405C84.0322 139.698 83.1983 139.791 82.378 139.675C81.5576 139.559 80.773 139.238 80.0856 138.737C79.3982 138.236 78.8267 137.569 78.4159 136.787C78.005 136.005 77.7659 135.131 77.7173 134.232L77.3031 126.566L39.8855 113.125C38.6248 112.672 37.4753 111.913 36.5241 110.905C35.5728 109.897 34.8448 108.666 34.3951 107.306V107.306C33.7397 105.324 33.7063 103.162 34.3003 101.157C34.8942 99.1522 36.082 97.4183 37.6777 96.2266L67.7662 73.7563L71.0834 92.2624Z" fill="#FFB8B8"/>
<path d="M87.6691 94.0679C80.7518 90.768 74.4617 94.3527 66.5222 97.2275L65.2783 73.305C73.1619 68.7311 80.6783 67.4979 87.6691 71.0482L87.6691 94.0679Z" fill="#58AFC4"/>
<path d="M95.9443 61.6837C103.255 61.6837 109.181 55.2326 109.181 47.2747C109.181 39.3169 103.255 32.8657 95.9443 32.8657C88.6338 32.8657 82.7075 39.3169 82.7075 47.2747C82.7075 55.2326 88.6338 61.6837 95.9443 61.6837Z" fill="#FFB8B8"/>
<path d="M111.779 45.4566C98.6738 46.8539 88.6875 44.5207 82.3052 37.8774V32.5273H110.667L111.779 45.4566Z" fill="#2F2E41"/>
</g>
<defs>
<clipPath id="clip0_433:621">
<rect width="441" height="334" fill="white"/>
</clipPath>
</defs>
</svg>
