<svg xmlns="http://www.w3.org/2000/svg" viewBox="0 0 1022.18 444.97"><defs><style>.cls-1{fill:#59acc0;}.cls-2{fill:#fff;}</style></defs><g id="Camada_2" data-name="Camada 2"><g id="Camada_1-2" data-name="Camada 1"><path class="cls-1" d="M260.77,263.73c-6.8,4.48-13.66,8.64-21.16,11.47-12.47,4.71-25.15,6.46-37.53-.22-7.63-4.12-12.91-10.77-16.61-18.43C177,239,177.14,221,183.59,202.83c.49-1.4,1.95-3.09.66-4.41s-2.72.27-4.12.6c-5.87,1.39-11.74,2.84-17.67,4-2.48.47-4.06,1.45-4.29,4-2,22.44-6.5,44.51-10.22,66.68-2.46,14.68-5.28,29.33-7.45,44.05-1.54,10.4-3.12,20.85-3.39,31.42-.14,5.6-.8,11.19-1.44,16.75-.54,4.72-3.72,6.94-8.12,7.91-6.62,1.47-13.41-3.74-13.43-10.37-.05-18,3-35.7,5.71-53.45,3.16-20.42,7.81-40.57,10.4-61.1,1.53-12,3.7-24,5-36.09.32-3.05-.73-2.85-2.86-2.32C105,217.16,77.91,224.49,51.42,234c-2.87,1-3.6,3.16-4.15,5.44-4.75,19.56-8.84,39.28-12,59.16a198,198,0,0,0-2.19,37.63c.25,7.38-2.86,11.38-8.32,11.75-8.55.58-13.91-3.24-14.6-10.89-1.76-19.5-1.68-38.91,1.71-58.33,1.71-9.77,3.73-19.5,5.56-29.51-1.1.32-1.85.53-2.59.76C8.26,252.13,4.38,251.12,2,246.63-1.43,240.19-.44,235,5,230.55c5.06-4.08,11.29-5.83,17-8.52a8.8,8.8,0,0,0,5-6.09c8-26.76,16.85-53.22,27.27-79.1,7.92-19.7,17.7-38.62,33.76-53.22C98.15,74.48,109.64,69.88,124,71.69c18.08,2.27,26.36,14,32.12,29.05,4.4,11.46,5.49,23.57,5.91,35.7.34,9.82-.08,19.66.18,29.48.1,3.55-1.2,6.83-1.14,10.33,0,2.86.34,4.36,4,3.27,7.51-2.23,15.17-3.93,22.77-5.87.48-.12,1-.58,1.38-.5,8.85,1.8,13.48-3.7,18.93-9.49,12.65-13.44,28.19-22.71,46.7-25.31,10.08-1.42,20.44-1,29.94,3.93,2.46,1.28,5,2.44,7.59,3.71,1.64-4.19,2.11-8.41,3.74-12.34,2.79-6.67,8.4-6.33,13.8-5.13,4.88,1.09,8,6.81,6.95,11.89-4.65,22.73-10.48,45.1-18.6,66.92-5.49,14.79-8.63,30.36-12.6,46.85,7.57-4.77,14.08-9,20.74-13,15.13-9.12,30.16-18.44,45.62-27,4.72-2.61,6.35-5.79,7.08-10.56,3.42-22.39,12-42.51,27.89-58.89,8.53-8.82,19.34-14.6,31.07-18.23,12.14-3.76,23.29-.42,29.23,9.51a34.32,34.32,0,0,1,4.26,22.23c-2.4,19-14.88,29.93-30.48,38.33-11.17,6-22.9,10.44-35.68,11.58-4.07.37-5.12,2.46-5.52,6.7-1.28,13.42,11.13,28.88,26.83,30,8.76.59,17-2.91,24.53-7.58,16.9-10.57,29.94-25.16,42.05-40.71,2.53-3.25,5.29-6.32,7.78-9.6,8.45-11.15,10.44-24.71,13.92-37.71,1.75-6.5.91-13.19,1.05-19.81.12-5.79,3.59-9.8,9.06-10.31,5.77-.53,9.55,2.41,11,8.27a24,24,0,0,1,.93,6.83c-.09,2.32,0,4.65,0,7.09,3.66.14,5.16-3,7.57-4.48,14-8.59,28.79-10.71,44.21-4.75,11.1,4.3,15.83,13.66,17.18,24.85,2.87,23.71-4.52,45.67-12.06,67.54-5.49,15.93-12.78,31.13-19.36,46.62-2.78,6.55-8.09,9.41-13.46,7-7-3.11-9.78-10.11-6.94-16.63,7.66-17.52,15.72-34.91,21.16-53.3,4.18-14.16,8.31-28.36,7.72-43.41a17.23,17.23,0,0,0-2.12-8.49c-2.29-3.73-5.12-5.89-10.25-4.54-13.79,3.66-23.39,12.58-31.62,23.55-15.27,20.37-22,44.48-30,68.06-2.26,6.69-4.63,13.33-7,20s-9.37,9.32-16.6,6.6c-5-1.89-6.8-8-4.41-14.21,2.11-5.47,3.85-11.07,6-17.34-5.71,4.75-10.68,9.29-16.06,13.27-14.54,10.76-30.66,18.14-49,15.23-17.3-2.74-31.35-11.62-39.12-28.27-1.28-2.75-1.5-3.94-5.27-1.84-22.06,12.26-43.24,25.86-64,40.21-4.29,3-8.61,5.92-12.79,9a7.57,7.57,0,0,0-2.93,4.93c-3.12,15.2-6,30.46-9.9,45.48-7.61,29.46-17.72,58-34.9,83.47C227,429,220,437.38,209.58,442.26c-9.68,4.55-23.61,3.61-32.53-4.57-10.64-9.76-13.38-21.38-12.09-35,2.17-23,11.84-42.82,25-61.18,12.87-18,28.66-33.29,45-48.06,7.21-6.51,14.77-12.54,22.45-18.48C260.72,272.39,259.39,267.61,260.77,263.73Zm-205.18-55a33.87,33.87,0,0,0,4.94-.94c24.24-8.84,49.38-14.44,74.34-20.71,1.87-.47,3.3-1,3.15-3-.32-4.51,1-8.88,1.06-13.33.12-13.32.35-26.65-.08-40-.28-8.82-1.59-17.6-5.45-25.76-5.79-12.25-18.23-14.71-28.73-5.08-8.42,7.73-14.36,17.19-19.49,27.1C78,141.24,72.37,156.29,67,171.42,62.76,183.56,58.91,195.81,55.59,208.72ZM204.12,227.9A43.74,43.74,0,0,0,206,240.61c4.07,15.12,13.3,20.05,27.63,13.11,19.42-9.42,31-25.9,40.28-44.42,6-12.05,8.2-25.42,12.08-38.21.43-1.42,1.14-3.09-.72-4.39-11.07-7.74-23-10.37-35.9-5.57-11.81,4.4-21.12,12.23-28.92,22.13C210.23,196.16,203.78,210.27,204.12,227.9Zm47,81.93c-2.91,2.7-5.48,4.34-7.51,6.36-15.35,15.21-31.36,29.89-43.15,48.26-8.34,13-12.77,27.23-12.36,42.81.19,7.34,4.72,12.93,9.78,11.48,6.53-1.87,12.73-4.91,17-10.3,8.05-10,13.72-21.45,18.18-33.5C240.83,354.11,246.15,332.63,251.14,309.83ZM430.7,152.91c-1-2.88-2-6.39-6.58-6.85-3.71-.38-6.59,1.31-9.59,3.11-7,4.21-11,11.21-15.92,17.29-4.24,5.29-7.36,11.5-10.74,17.45-.6,1.05-2.79,4.54.7,3.86,14.15-2.76,26.61-8.87,35.45-20.88C427,162.79,430,158.67,430.7,152.91Z"/><path class="cls-2" d="M997,129.68a6.89,6.89,0,0,1-5.78,6.92c-11.8,2.46-23.54,5.05-35,8.81-3,1-5.75.27-6.85-3s0-6.45,3.28-8a113.51,113.51,0,0,1,23.33-7.2,90.49,90.49,0,0,0,11.79-3.39C992.36,122.15,997.11,124.87,997,129.68Z"/><path class="cls-2" d="M1021.13,227.23c-5.08-7.21-13.1-10.14-20.47-2.45-8.72,9.1-17.37,18.32-27.22,26.25-9.17,7.39-18.66,14.16-30.61,16.6-6.83,1.39-11.13-1.69-11.94-8.49-.91-7.73,1.6-14.68,3.93-21.71,2.93-8.83,8-16.7,11.77-25.14,4.6-10.37,11.51-19.37,16.25-29.63,1.78-3.86,3.79-7.6,5.47-11.55s-.43-7.55-2.58-8.47c-3.14-1.34-6.3-4.16-10.81-2.24-7.17,3.06-9.22,9.79-12.28,15.6-7.73,14.65-15.32,29.45-23.63,43.69C911.48,232.61,902.14,245,889.53,254c-6.83,4.88-14.28,8.83-22.82,6.21-10.07-3.09-15.27-11.6-14.67-22.54A94.85,94.85,0,0,1,856.76,214a187.29,187.29,0,0,1,11.61-27.75c4.53-8.92,10.6-17,14.6-26.18,2.17-5,.57-9.65-4.65-13.16-4.69-3.16-8.26-2.74-12.25,1.63-1.45,1.58-3.14,3.25-3.79,5.19-1.91,5.66-5.37,5.26-9.6,3.06-12.58-6.54-25.6-7.25-39.31-3.91a101,101,0,0,0-50.19,28.64c-10.84,11.32-19.68,24-21.89,40.2-1.07,7.86-.28,16,2.9,22.79a65.11,65.11,0,0,0,12.47,17.86,37.18,37.18,0,0,0,16.61,9.84c12.37,3.44,24.2-1.37,33.71-8.85,8-6.32,17.66-11.19,23.82-20.3.25,3.93-.45,8.24.94,11.7,3.15,7.83,6.21,15.54,12.91,21.79,9.38,8.75,20.15,11.36,31.59,8.82a54.15,54.15,0,0,0,27.46-15.55c3.14-3.27,5.72-2.59,7.3,1.82s3.84,9.17,7.45,11.95c7.94,6.11,17.17,8.88,27.36,6.47,9.17-2.17,17.44-6.41,25.33-11.37,6-3.75,12.07-7.46,17.39-12,6.58-5.65,12.49-12.1,18.52-18.36,2.06-2.14,3.73-4.7,6.46-6,4-2,5.41-6.17,7.86-9.42A4.75,4.75,0,0,0,1021.13,227.23ZM847.82,180.39c-6.88,11-13.12,22.45-20.88,33-5.12,6.95-10.15,13.92-16.54,19.68-7.63,6.88-15.53,13.53-25.83,16.23-1.43.37-2.89.63-3.34.73-8.54.08-15.12-5.73-14.65-13.73.41-7-.14-14,2-21a50,50,0,0,1,12.87-21c8.77-8.81,18.48-16.12,30.36-20.24,8.87-3.09,17.91-2.83,26.9-1,3,.61,5.72,2.49,8.57,3.76C849.45,177.67,848.6,179.14,847.82,180.39Z"/><path class="cls-2" d="M799.17,7.49c-1.84-4.2-4.45-7.18-9.6-7.46-5.54-.31-9.32,2-11.74,6.68-1.34,2.62-2.48,5.38-3.64,8.08C768.61,27.79,763.5,41,758,54c-5.59,13.24-11.61,26.29-17.14,39.55-7.71,18.47-16.12,36.65-22.94,55.48-1.07,2.93-2.33,3.54-5.08,1.54-7.87-5.74-16.42-9.86-26.25-11.28-8.23-1.18-17.07-1.31-24.23,1.24a87.93,87.93,0,0,0-36.27,24C611.26,181,602,199,602,221.24c-.43,9.16,1.55,17.72,4.64,26.3a34.87,34.87,0,0,0,38.54,22.58c3.69-.61,6.56-2.88,10.15-3.1,4.48-.28,8.1-2.33,11.72-4.86,4.45-3.09,7.45-8.07,13-9.75.86-.26,1.58-1.61,2.53-.59a2.79,2.79,0,0,1,.28,2.32c-3.06,9.22-4.94,18.72-6.74,28.25-1.26,6.65-2.92,13.25-3.91,19.94-.92,6.15,2.22,9.47,9.08,10.52,3.73.57,11.08-3.63,11.75-6.85,2.36-11.46,4.46-23,7-34.4a449.33,449.33,0,0,1,14.45-51.67c4.55-12.9,8.91-25.88,13.76-38.66,4.08-10.76,8.32-21.5,13.27-31.88,4.62-9.68,8.7-19.6,13.09-29.37,5.89-13.1,11.59-26.38,16.57-39.88,3.8-10.32,8.69-20.15,12.35-30.53S791.43,29,796.1,19C797.66,15.62,801.16,12,799.17,7.49Zm-94.8,169.22c-4,4.88-5.28,11-9,16-5.89,7.75-10,16.73-16.3,24.25-6,7.26-11.52,14.85-19.1,21-4.18,3.4-7.89,7.06-13,9.14-13.16,5.39-22.19-4.16-24.71-14-.92-3.58-2-7.42-1.35-9.91.07-11,4.17-19.31,8.47-27.54,3.82-7.33,9.26-13.42,14.87-19.37,12.08-12.84,26.44-19.49,44.32-15.25A37.29,37.29,0,0,1,702,167C706.43,170.17,707.68,172.66,704.37,176.71Z"/></g></g></svg>