<svg width="365" height="134" viewBox="0 0 365 134" fill="none" xmlns="http://www.w3.org/2000/svg">
<path d="M53.5396 63.0359C52.9516 63.5669 52.4907 64.1931 52.1833 64.8784C51.5374 66.2377 51.5374 67.7624 52.1833 69.1218C52.4907 69.8071 52.9516 70.4333 53.5396 70.9642L72.9146 87.7143C74.1307 88.7656 75.7801 89.3563 77.5 89.3563C79.2199 89.3563 80.8693 88.7656 82.0854 87.7143C83.3016 86.6629 83.9848 85.2369 83.9848 83.7501C83.9848 82.2632 83.3016 80.8373 82.0854 79.7859L73.6896 72.5834H96.875C98.5879 72.5834 100.231 71.9952 101.442 70.9481C102.653 69.901 103.333 68.4809 103.333 67.0001C103.333 65.5193 102.653 64.0991 101.442 63.0521C100.231 62.005 98.5879 61.4167 96.875 61.4167H73.6896L82.0854 54.2142C82.6908 53.6952 83.1712 53.0777 83.4991 52.3973C83.827 51.7169 83.9958 50.9871 83.9958 50.2501C83.9958 49.513 83.827 48.7832 83.4991 48.1029C83.1712 47.4225 82.6908 46.805 82.0854 46.2859C81.485 45.7626 80.7707 45.3472 79.9837 45.0638C79.1967 44.7803 78.3526 44.6344 77.5 44.6344C76.6474 44.6344 75.8033 44.7803 75.0163 45.0638C74.2293 45.3472 73.515 45.7626 72.9146 46.2859L53.5396 63.0359ZM12.9167 67.0001C12.9167 78.0429 16.7044 88.8377 23.8009 98.0194C30.8974 107.201 40.984 114.357 52.785 118.583C64.5861 122.809 77.5716 123.915 90.0996 121.761C102.628 119.606 114.135 114.289 123.167 106.48C132.199 98.6718 138.35 88.7232 140.842 77.8926C143.334 67.062 142.055 55.8358 137.167 45.6336C132.279 35.4314 124.001 26.7114 113.381 20.5764C102.76 14.4413 90.2734 11.1667 77.5 11.1667C69.0188 11.1667 60.6206 12.6109 52.785 15.4168C44.9494 18.2227 37.8298 22.3353 31.8327 27.52C19.721 37.9907 12.9167 52.1922 12.9167 67.0001V67.0001ZM129.167 67.0001C129.167 75.8343 126.136 84.4702 120.459 91.8155C114.782 99.1609 106.713 104.886 97.272 108.267C87.8311 111.647 77.4427 112.532 67.4203 110.808C57.398 109.085 48.1919 104.831 40.9662 98.5842C33.7404 92.3374 28.8197 84.3786 26.8261 75.7141C24.8325 67.0496 25.8557 58.0687 29.7662 49.9069C33.6768 41.7451 40.299 34.7691 48.7955 29.8611C57.2921 24.9531 67.2813 22.3334 77.5 22.3334C91.2029 22.3334 104.344 27.0394 114.034 35.416C123.723 43.7926 129.167 55.1537 129.167 67.0001Z" fill="#58AFC4"/>
<path d="M203.384 44.2L183.992 89H173.752L154.424 44.2H165.624L179.256 76.2L193.08 44.2H203.384ZM220.242 89.512C216.615 89.512 213.351 88.7653 210.45 87.272C207.591 85.736 205.351 83.624 203.73 80.936C202.109 78.248 201.298 75.1973 201.298 71.784C201.298 68.3707 202.109 65.32 203.73 62.632C205.351 59.944 207.591 57.8533 210.45 56.36C213.351 54.824 216.615 54.056 220.242 54.056C223.869 54.056 227.111 54.824 229.97 56.36C232.829 57.8533 235.069 59.944 236.69 62.632C238.311 65.32 239.122 68.3707 239.122 71.784C239.122 75.1973 238.311 78.248 236.69 80.936C235.069 83.624 232.829 85.736 229.97 87.272C227.111 88.7653 223.869 89.512 220.242 89.512ZM220.242 81.32C222.802 81.32 224.893 80.4667 226.514 78.76C228.178 77.0107 229.01 74.6853 229.01 71.784C229.01 68.8827 228.178 66.5787 226.514 64.872C224.893 63.1227 222.802 62.248 220.242 62.248C217.682 62.248 215.57 63.1227 213.906 64.872C212.242 66.5787 211.41 68.8827 211.41 71.784C211.41 74.6853 212.242 77.0107 213.906 78.76C215.57 80.4667 217.682 81.32 220.242 81.32ZM245.796 41.512H255.78V89H245.796V41.512ZM289.754 87.336C288.772 88.0613 287.556 88.616 286.106 89C284.698 89.3413 283.204 89.512 281.626 89.512C277.53 89.512 274.351 88.4667 272.09 86.376C269.871 84.2853 268.762 81.2133 268.762 77.16V63.016H263.45V55.336H268.762V46.952H278.746V55.336H287.322V63.016H278.746V77.032C278.746 78.4827 279.108 79.6133 279.833 80.424C280.602 81.192 281.668 81.576 283.034 81.576C284.612 81.576 285.956 81.1493 287.066 80.296L289.754 87.336ZM309.246 54.056C314.579 54.056 318.675 55.336 321.534 57.896C324.393 60.4133 325.822 64.232 325.822 69.352V89H316.478V84.712C314.601 87.912 311.102 89.512 305.982 89.512C303.337 89.512 301.033 89.064 299.07 88.168C297.15 87.272 295.678 86.0347 294.654 84.456C293.63 82.8773 293.118 81.0853 293.118 79.08C293.118 75.88 294.313 73.3627 296.702 71.528C299.134 69.6933 302.867 68.776 307.902 68.776H315.838C315.838 66.6 315.177 64.936 313.854 63.784C312.531 62.5893 310.547 61.992 307.902 61.992C306.067 61.992 304.254 62.2907 302.462 62.888C300.713 63.4427 299.219 64.2107 297.982 65.192L294.398 58.216C296.275 56.8933 298.515 55.8693 301.118 55.144C303.763 54.4187 306.473 54.056 309.246 54.056ZM308.478 82.792C310.185 82.792 311.699 82.408 313.022 81.64C314.345 80.8293 315.283 79.656 315.838 78.12V74.6H308.99C304.894 74.6 302.846 75.944 302.846 78.632C302.846 79.912 303.337 80.936 304.318 81.704C305.342 82.4293 306.729 82.792 308.478 82.792ZM344.394 59.112C345.589 57.448 347.189 56.1893 349.194 55.336C351.242 54.4827 353.589 54.056 356.234 54.056V63.272C355.125 63.1867 354.378 63.144 353.994 63.144C351.135 63.144 348.895 63.9547 347.274 65.576C345.653 67.1547 344.842 69.544 344.842 72.744V89H334.858V54.568H344.394V59.112Z" fill="#FCFCFC"/>
</svg>
