<svg width="1683" height="1230" viewBox="0 0 1683 1230" fill="none" xmlns="http://www.w3.org/2000/svg">
<g clip-path="url(#clip0_628:375)">
<path d="M382.261 31.9635C390.492 31.9635 397.165 24.8082 397.165 15.9817C397.165 7.15526 390.492 -1.52588e-05 382.261 -1.52588e-05C374.03 -1.52588e-05 367.358 7.15526 367.358 15.9817C367.358 24.8082 374.03 31.9635 382.261 31.9635Z" fill="#E6E6E6"/>
<path d="M457.702 31.9635C465.933 31.9635 472.606 24.8082 472.606 15.9817C472.606 7.15526 465.933 -1.52588e-05 457.702 -1.52588e-05C449.471 -1.52588e-05 442.799 7.15526 442.799 15.9817C442.799 24.8082 449.471 31.9635 457.702 31.9635Z" fill="#E6E6E6"/>
<path d="M533.143 31.9635C541.374 31.9635 548.047 24.8082 548.047 15.9817C548.047 7.15526 541.374 -1.52588e-05 533.143 -1.52588e-05C524.912 -1.52588e-05 518.24 7.15526 518.24 15.9817C518.24 24.8082 524.912 31.9635 533.143 31.9635Z" fill="#E6E6E6"/>
<path d="M608.584 31.9635C616.815 31.9635 623.488 24.8082 623.488 15.9817C623.488 7.15526 616.815 -1.52588e-05 608.584 -1.52588e-05C600.353 -1.52588e-05 593.681 7.15526 593.681 15.9817C593.681 24.8082 600.353 31.9635 608.584 31.9635Z" fill="#E6E6E6"/>
<path d="M684.025 31.9635C692.256 31.9635 698.929 24.8082 698.929 15.9817C698.929 7.15526 692.256 -1.52588e-05 684.025 -1.52588e-05C675.794 -1.52588e-05 669.122 7.15526 669.122 15.9817C669.122 24.8082 675.794 31.9635 684.025 31.9635Z" fill="#E6E6E6"/>
<path d="M382.261 113.878C390.492 113.878 397.165 106.723 397.165 97.8964C397.165 89.0699 390.492 81.9147 382.261 81.9147C374.03 81.9147 367.358 89.0699 367.358 97.8964C367.358 106.723 374.03 113.878 382.261 113.878Z" fill="#E6E6E6"/>
<path d="M457.702 113.878C465.933 113.878 472.606 106.723 472.606 97.8964C472.606 89.0699 465.933 81.9147 457.702 81.9147C449.471 81.9147 442.799 89.0699 442.799 97.8964C442.799 106.723 449.471 113.878 457.702 113.878Z" fill="#E6E6E6"/>
<path d="M533.143 113.878C541.374 113.878 548.047 106.723 548.047 97.8964C548.047 89.0699 541.374 81.9147 533.143 81.9147C524.912 81.9147 518.24 89.0699 518.24 97.8964C518.24 106.723 524.912 113.878 533.143 113.878Z" fill="#E6E6E6"/>
<path d="M608.584 113.878C616.815 113.878 623.488 106.723 623.488 97.8964C623.488 89.0699 616.815 81.9147 608.584 81.9147C600.353 81.9147 593.681 89.0699 593.681 97.8964C593.681 106.723 600.353 113.878 608.584 113.878Z" fill="#58AFC4"/>
<path d="M684.025 113.878C692.256 113.878 698.929 106.723 698.929 97.8964C698.929 89.0699 692.256 81.9147 684.025 81.9147C675.794 81.9147 669.122 89.0699 669.122 97.8964C669.122 106.723 675.794 113.878 684.025 113.878Z" fill="#E6E6E6"/>
<path d="M834.907 113.878C843.138 113.878 849.81 106.723 849.81 97.8964C849.81 89.0699 843.138 81.9147 834.907 81.9147C826.676 81.9147 820.003 89.0699 820.003 97.8964C820.003 106.723 826.676 113.878 834.907 113.878Z" fill="#E6E6E6"/>
<path d="M382.261 195.793C390.492 195.793 397.165 188.638 397.165 179.811C397.165 170.985 390.492 163.829 382.261 163.829C374.03 163.829 367.358 170.985 367.358 179.811C367.358 188.638 374.03 195.793 382.261 195.793Z" fill="#E6E6E6"/>
<path d="M457.702 195.793C465.933 195.793 472.606 188.638 472.606 179.811C472.606 170.985 465.933 163.829 457.702 163.829C449.471 163.829 442.799 170.985 442.799 179.811C442.799 188.638 449.471 195.793 457.702 195.793Z" fill="#E6E6E6"/>
<path d="M533.143 195.793C541.374 195.793 548.047 188.638 548.047 179.811C548.047 170.985 541.374 163.829 533.143 163.829C524.912 163.829 518.24 170.985 518.24 179.811C518.24 188.638 524.912 195.793 533.143 195.793Z" fill="#E6E6E6"/>
<path d="M608.584 195.793C616.815 195.793 623.488 188.638 623.488 179.811C623.488 170.985 616.815 163.829 608.584 163.829C600.353 163.829 593.681 170.985 593.681 179.811C593.681 188.638 600.353 195.793 608.584 195.793Z" fill="#E6E6E6"/>
<path d="M684.025 195.793C692.256 195.793 698.929 188.638 698.929 179.811C698.929 170.985 692.256 163.829 684.025 163.829C675.794 163.829 669.122 170.985 669.122 179.811C669.122 188.638 675.794 195.793 684.025 195.793Z" fill="#E6E6E6"/>
<path d="M382.261 277.708C390.492 277.708 397.165 270.552 397.165 261.726C397.165 252.899 390.492 245.744 382.261 245.744C374.03 245.744 367.358 252.899 367.358 261.726C367.358 270.552 374.03 277.708 382.261 277.708Z" fill="#E6E6E6"/>
<path d="M457.702 277.708C465.933 277.708 472.606 270.552 472.606 261.726C472.606 252.899 465.933 245.744 457.702 245.744C449.471 245.744 442.799 252.899 442.799 261.726C442.799 270.552 449.471 277.708 457.702 277.708Z" fill="#E6E6E6"/>
<path d="M533.143 277.708C541.374 277.708 548.047 270.552 548.047 261.726C548.047 252.899 541.374 245.744 533.143 245.744C524.912 245.744 518.24 252.899 518.24 261.726C518.24 270.552 524.912 277.708 533.143 277.708Z" fill="#E6E6E6"/>
<path d="M608.584 277.708C616.815 277.708 623.488 270.552 623.488 261.726C623.488 252.899 616.815 245.744 608.584 245.744C600.353 245.744 593.681 252.899 593.681 261.726C593.681 270.552 600.353 277.708 608.584 277.708Z" fill="#E6E6E6"/>
<path d="M684.025 277.708C692.256 277.708 698.929 270.552 698.929 261.726C698.929 252.899 692.256 245.744 684.025 245.744C675.794 245.744 669.122 252.899 669.122 261.726C669.122 270.552 675.794 277.708 684.025 277.708Z" fill="#E6E6E6"/>
<path d="M759.465 277.708C767.696 277.708 774.369 270.552 774.369 261.726C774.369 252.899 767.696 245.744 759.465 245.744C751.234 245.744 744.562 252.899 744.562 261.726C744.562 270.552 751.234 277.708 759.465 277.708Z" fill="#E6E6E6"/>
<path d="M834.907 277.708C843.138 277.708 849.81 270.552 849.81 261.726C849.81 252.899 843.138 245.744 834.907 245.744C826.676 245.744 820.003 252.899 820.003 261.726C820.003 270.552 826.676 277.708 834.907 277.708Z" fill="#E6E6E6"/>
<path d="M910.347 277.708C918.578 277.708 925.251 270.552 925.251 261.726C925.251 252.899 918.578 245.744 910.347 245.744C902.116 245.744 895.444 252.899 895.444 261.726C895.444 270.552 902.116 277.708 910.347 277.708Z" fill="#E6E6E6"/>
<path d="M985.788 277.708C994.019 277.708 1000.69 270.552 1000.69 261.726C1000.69 252.899 994.019 245.744 985.788 245.744C977.557 245.744 970.885 252.899 970.885 261.726C970.885 270.552 977.557 277.708 985.788 277.708Z" fill="#E6E6E6"/>
<path d="M1061.23 277.708C1069.46 277.708 1076.13 270.552 1076.13 261.726C1076.13 252.899 1069.46 245.744 1061.23 245.744C1053 245.744 1046.33 252.899 1046.33 261.726C1046.33 270.552 1053 277.708 1061.23 277.708Z" fill="#E6E6E6"/>
<path d="M684.025 359.622C692.256 359.622 698.929 352.467 698.929 343.64C698.929 334.814 692.256 327.659 684.025 327.659C675.794 327.659 669.122 334.814 669.122 343.64C669.122 352.467 675.794 359.622 684.025 359.622Z" fill="#E6E6E6"/>
<path d="M759.465 359.622C767.696 359.622 774.369 352.467 774.369 343.64C774.369 334.814 767.696 327.659 759.465 327.659C751.234 327.659 744.562 334.814 744.562 343.64C744.562 352.467 751.234 359.622 759.465 359.622Z" fill="#58AFC4"/>
<path d="M834.907 359.622C843.138 359.622 849.81 352.467 849.81 343.64C849.81 334.814 843.138 327.659 834.907 327.659C826.676 327.659 820.003 334.814 820.003 343.64C820.003 352.467 826.676 359.622 834.907 359.622Z" fill="#E6E6E6"/>
<path d="M910.347 359.622C918.578 359.622 925.251 352.467 925.251 343.64C925.251 334.814 918.578 327.659 910.347 327.659C902.116 327.659 895.444 334.814 895.444 343.64C895.444 352.467 902.116 359.622 910.347 359.622Z" fill="#E6E6E6"/>
<path d="M985.788 359.622C994.019 359.622 1000.69 352.467 1000.69 343.64C1000.69 334.814 994.019 327.659 985.788 327.659C977.557 327.659 970.885 334.814 970.885 343.64C970.885 352.467 977.557 359.622 985.788 359.622Z" fill="#E6E6E6"/>
<path d="M1061.23 359.622C1069.46 359.622 1076.13 352.467 1076.13 343.64C1076.13 334.814 1069.46 327.659 1061.23 327.659C1053 327.659 1046.33 334.814 1046.33 343.64C1046.33 352.467 1053 359.622 1061.23 359.622Z" fill="#E6E6E6"/>
<path d="M684.025 441.537C692.256 441.537 698.929 434.382 698.929 425.555C698.929 416.729 692.256 409.573 684.025 409.573C675.794 409.573 669.122 416.729 669.122 425.555C669.122 434.382 675.794 441.537 684.025 441.537Z" fill="#E6E6E6"/>
<path d="M759.465 441.537C767.696 441.537 774.369 434.382 774.369 425.555C774.369 416.729 767.696 409.573 759.465 409.573C751.234 409.573 744.562 416.729 744.562 425.555C744.562 434.382 751.234 441.537 759.465 441.537Z" fill="#E6E6E6"/>
<path d="M834.907 441.537C843.138 441.537 849.81 434.382 849.81 425.555C849.81 416.729 843.138 409.573 834.907 409.573C826.676 409.573 820.003 416.729 820.003 425.555C820.003 434.382 826.676 441.537 834.907 441.537Z" fill="#E6E6E6"/>
<path d="M910.347 441.537C918.578 441.537 925.251 434.382 925.251 425.555C925.251 416.729 918.578 409.573 910.347 409.573C902.116 409.573 895.444 416.729 895.444 425.555C895.444 434.382 902.116 441.537 910.347 441.537Z" fill="#E6E6E6"/>
<path d="M985.788 441.537C994.019 441.537 1000.69 434.382 1000.69 425.555C1000.69 416.729 994.019 409.573 985.788 409.573C977.557 409.573 970.885 416.729 970.885 425.555C970.885 434.382 977.557 441.537 985.788 441.537Z" fill="#58AFC4"/>
<path d="M1061.23 441.537C1069.46 441.537 1076.13 434.382 1076.13 425.555C1076.13 416.729 1069.46 409.573 1061.23 409.573C1053 409.573 1046.33 416.729 1046.33 425.555C1046.33 434.382 1053 441.537 1061.23 441.537Z" fill="#E6E6E6"/>
<path d="M684.025 523.452C692.256 523.452 698.929 516.296 698.929 507.47C698.929 498.643 692.256 491.488 684.025 491.488C675.794 491.488 669.122 498.643 669.122 507.47C669.122 516.296 675.794 523.452 684.025 523.452Z" fill="#E6E6E6"/>
<path d="M759.465 523.452C767.696 523.452 774.369 516.296 774.369 507.47C774.369 498.643 767.696 491.488 759.465 491.488C751.234 491.488 744.562 498.643 744.562 507.47C744.562 516.296 751.234 523.452 759.465 523.452Z" fill="#E6E6E6"/>
<path d="M834.907 523.452C843.138 523.452 849.81 516.296 849.81 507.47C849.81 498.643 843.138 491.488 834.907 491.488C826.676 491.488 820.003 498.643 820.003 507.47C820.003 516.296 826.676 523.452 834.907 523.452Z" fill="#E6E6E6"/>
<path d="M910.347 523.452C918.578 523.452 925.251 516.296 925.251 507.47C925.251 498.643 918.578 491.488 910.347 491.488C902.116 491.488 895.444 498.643 895.444 507.47C895.444 516.296 902.116 523.452 910.347 523.452Z" fill="#E6E6E6"/>
<path d="M985.788 523.452C994.019 523.452 1000.69 516.296 1000.69 507.47C1000.69 498.643 994.019 491.488 985.788 491.488C977.557 491.488 970.885 498.643 970.885 507.47C970.885 516.296 977.557 523.452 985.788 523.452Z" fill="#E6E6E6"/>
<path d="M1061.23 523.452C1069.46 523.452 1076.13 516.296 1076.13 507.47C1076.13 498.643 1069.46 491.488 1061.23 491.488C1053 491.488 1046.33 498.643 1046.33 507.47C1046.33 516.296 1053 523.452 1061.23 523.452Z" fill="#E6E6E6"/>
<path d="M382.261 605.366C390.492 605.366 397.165 598.211 397.165 589.385C397.165 580.558 390.492 573.403 382.261 573.403C374.03 573.403 367.358 580.558 367.358 589.385C367.358 598.211 374.03 605.366 382.261 605.366Z" fill="#E6E6E6"/>
<path d="M457.702 605.366C465.933 605.366 472.606 598.211 472.606 589.385C472.606 580.558 465.933 573.403 457.702 573.403C449.471 573.403 442.799 580.558 442.799 589.385C442.799 598.211 449.471 605.366 457.702 605.366Z" fill="#E6E6E6"/>
<path d="M533.143 605.366C541.374 605.366 548.047 598.211 548.047 589.385C548.047 580.558 541.374 573.403 533.143 573.403C524.912 573.403 518.24 580.558 518.24 589.385C518.24 598.211 524.912 605.366 533.143 605.366Z" fill="#E6E6E6"/>
<path d="M608.584 605.366C616.815 605.366 623.488 598.211 623.488 589.385C623.488 580.558 616.815 573.403 608.584 573.403C600.353 573.403 593.681 580.558 593.681 589.385C593.681 598.211 600.353 605.366 608.584 605.366Z" fill="#E6E6E6"/>
<path d="M684.025 605.366C692.256 605.366 698.929 598.211 698.929 589.385C698.929 580.558 692.256 573.403 684.025 573.403C675.794 573.403 669.122 580.558 669.122 589.385C669.122 598.211 675.794 605.366 684.025 605.366Z" fill="#E6E6E6"/>
<path d="M759.465 605.366C767.696 605.366 774.369 598.211 774.369 589.385C774.369 580.558 767.696 573.403 759.465 573.403C751.234 573.403 744.562 580.558 744.562 589.385C744.562 598.211 751.234 605.366 759.465 605.366Z" fill="#E6E6E6"/>
<path d="M834.907 605.366C843.138 605.366 849.81 598.211 849.81 589.385C849.81 580.558 843.138 573.403 834.907 573.403C826.676 573.403 820.003 580.558 820.003 589.385C820.003 598.211 826.676 605.366 834.907 605.366Z" fill="#E6E6E6"/>
<path d="M910.347 605.366C918.578 605.366 925.251 598.211 925.251 589.385C925.251 580.558 918.578 573.403 910.347 573.403C902.116 573.403 895.444 580.558 895.444 589.385C895.444 598.211 902.116 605.366 910.347 605.366Z" fill="#E6E6E6"/>
<path d="M985.788 605.366C994.019 605.366 1000.69 598.211 1000.69 589.385C1000.69 580.558 994.019 573.403 985.788 573.403C977.557 573.403 970.885 580.558 970.885 589.385C970.885 598.211 977.557 605.366 985.788 605.366Z" fill="#E6E6E6"/>
<path d="M1061.23 605.366C1069.46 605.366 1076.13 598.211 1076.13 589.385C1076.13 580.558 1069.46 573.403 1061.23 573.403C1053 573.403 1046.33 580.558 1046.33 589.385C1046.33 598.211 1053 605.366 1061.23 605.366Z" fill="#E6E6E6"/>
<path d="M382.253 687.278C390.483 687.278 397.156 680.123 397.156 671.297C397.156 662.47 390.483 655.315 382.253 655.315C374.022 655.315 367.349 662.47 367.349 671.297C367.349 680.123 374.022 687.278 382.253 687.278Z" fill="#E6E6E6"/>
<path d="M457.702 687.281C465.933 687.281 472.606 680.126 472.606 671.299C472.606 662.473 465.933 655.317 457.702 655.317C449.471 655.317 442.799 662.473 442.799 671.299C442.799 680.126 449.471 687.281 457.702 687.281Z" fill="#E6E6E6"/>
<path d="M382.253 769.193C390.483 769.193 397.156 762.037 397.156 753.211C397.156 744.384 390.483 737.229 382.253 737.229C374.022 737.229 367.349 744.384 367.349 753.211C367.349 762.037 374.022 769.193 382.253 769.193Z" fill="#E6E6E6"/>
<path d="M457.702 769.196C465.933 769.196 472.606 762.041 472.606 753.214C472.606 744.388 465.933 737.232 457.702 737.232C449.471 737.232 442.799 744.388 442.799 753.214C442.799 762.041 449.471 769.196 457.702 769.196Z" fill="#E6E6E6"/>
<path d="M608.584 769.196C616.815 769.196 623.488 762.041 623.488 753.214C623.488 744.388 616.815 737.232 608.584 737.232C600.353 737.232 593.681 744.388 593.681 753.214C593.681 762.041 600.353 769.196 608.584 769.196Z" fill="#E6E6E6"/>
<path d="M1360.56 188.553H769.96C767.06 188.549 764.28 187.312 762.23 185.113C760.18 182.915 759.026 179.934 759.023 176.824V19.7231C759.026 16.6137 760.18 13.6327 762.23 11.434C764.28 9.23532 767.06 7.99849 769.96 7.99484H1360.56C1363.45 7.99849 1366.23 9.23532 1368.29 11.434C1370.34 13.6327 1371.49 16.6137 1371.49 19.7231V176.824C1371.49 179.934 1370.34 182.915 1368.29 185.113C1366.23 187.312 1363.45 188.549 1360.56 188.553ZM769.96 12.6861C768.22 12.6882 766.552 13.4302 765.322 14.7495C764.092 16.0687 763.4 17.8574 763.398 19.7231V176.824C763.4 178.69 764.092 180.479 765.322 181.798C766.552 183.117 768.22 183.859 769.96 183.861H1360.56C1362.3 183.859 1363.96 183.117 1365.19 181.798C1366.42 180.479 1367.12 178.69 1367.12 176.824V19.7231C1367.12 17.8574 1366.42 16.0687 1365.19 14.7495C1363.96 13.4302 1362.3 12.6882 1360.56 12.6861H769.96Z" fill="#E6E6E6"/>
<path d="M846.518 147.532C871.888 147.532 892.454 125.478 892.454 98.2731C892.454 71.0683 871.888 49.0144 846.518 49.0144C821.149 49.0144 800.583 71.0683 800.583 98.2731C800.583 125.478 821.149 147.532 846.518 147.532Z" fill="#58AFC4"/>
<path d="M952.607 65.434C950.576 65.434 948.629 66.2989 947.193 67.8385C945.758 69.3782 944.951 71.4664 944.951 73.6437C944.951 75.8211 945.758 77.9093 947.193 79.4489C948.629 80.9885 950.576 81.8535 952.607 81.8535H1156.03C1158.06 81.8535 1160.01 80.9885 1161.45 79.4489C1162.88 77.9093 1163.69 75.8211 1163.69 73.6437C1163.69 71.4664 1162.88 69.3782 1161.45 67.8385C1160.01 66.2989 1158.06 65.434 1156.03 65.434H952.607Z" fill="#E6E6E6"/>
<path d="M952.607 114.693C950.576 114.693 948.629 115.558 947.193 117.097C945.758 118.637 944.951 120.725 944.951 122.902C944.951 125.08 945.758 127.168 947.193 128.708C948.629 130.247 950.576 131.112 952.607 131.112H1313.53C1315.56 131.112 1317.5 130.247 1318.94 128.708C1320.37 127.168 1321.18 125.08 1321.18 122.902C1321.18 120.725 1320.37 118.637 1318.94 117.097C1317.5 115.558 1315.56 114.693 1313.53 114.693H952.607Z" fill="#E6E6E6"/>
<path d="M601.532 507.561H10.9369C8.03732 507.557 5.25745 506.321 3.20712 504.122C1.15678 501.923 0.00339816 498.942 0 495.833V338.732C0.00339816 335.622 1.15678 332.641 3.20712 330.443C5.25745 328.244 8.03732 327.007 10.9369 327.003H601.532C604.432 327.007 607.212 328.244 609.262 330.443C611.312 332.641 612.466 335.622 612.469 338.732V495.833C612.466 498.942 611.312 501.923 609.262 504.122C607.212 506.321 604.432 507.557 601.532 507.561ZM10.9369 331.695C9.19712 331.697 7.52911 332.439 6.29888 333.758C5.06865 335.077 4.37667 336.866 4.37477 338.732V495.833C4.37667 497.699 5.06865 499.487 6.29888 500.807C7.52911 502.126 9.19712 502.868 10.9369 502.87H601.532C603.272 502.868 604.94 502.126 606.17 500.807C607.401 499.487 608.093 497.699 608.094 495.833V338.732C608.093 336.866 607.401 335.077 606.17 333.758C604.94 332.439 603.272 331.697 601.532 331.695H10.9369Z" fill="#E6E6E6"/>
<path d="M87.4957 466.54C112.865 466.54 133.431 444.486 133.431 417.282C133.431 390.077 112.865 368.023 87.4957 368.023C62.1264 368.023 41.5605 390.077 41.5605 417.282C41.5605 444.486 62.1264 466.54 87.4957 466.54Z" fill="#58AFC4"/>
<path d="M193.584 384.442C191.553 384.442 189.606 385.307 188.17 386.847C186.734 388.387 185.928 390.475 185.928 392.652C185.928 394.83 186.734 396.918 188.17 398.457C189.606 399.997 191.553 400.862 193.584 400.862H405.76C407.79 400.862 409.738 399.997 411.174 398.457C412.609 396.918 413.416 394.83 413.416 392.652C413.416 390.475 412.609 388.387 411.174 386.847C409.738 385.307 407.79 384.442 405.76 384.442H193.584Z" fill="#E6E6E6"/>
<path d="M193.584 433.701C191.553 433.701 189.606 434.566 188.17 436.106C186.734 437.645 185.928 439.733 185.928 441.911C185.928 444.088 186.734 446.176 188.17 447.716C189.606 449.256 191.553 450.121 193.584 450.121H554.502C556.533 450.121 558.48 449.256 559.916 447.716C561.352 446.176 562.158 444.088 562.158 441.911C562.158 439.733 561.352 437.645 559.916 436.106C558.48 434.566 556.533 433.701 554.502 433.701H193.584Z" fill="#E6E6E6"/>
<path d="M1135.25 852.372H544.659C541.76 852.368 538.98 851.131 536.93 848.932C534.879 846.734 533.726 843.753 533.722 840.643V683.542C533.726 680.433 534.879 677.452 536.93 675.253C538.98 673.054 541.76 671.818 544.659 671.814H1135.25C1138.15 671.818 1140.93 673.054 1142.98 675.253C1145.03 677.452 1146.19 680.433 1146.19 683.542V840.643C1146.19 843.753 1145.03 846.734 1142.98 848.932C1140.93 851.131 1138.15 852.368 1135.25 852.372ZM544.659 676.505C542.92 676.507 541.252 677.249 540.021 678.569C538.791 679.888 538.099 681.677 538.097 683.542V840.643C538.099 842.509 538.791 844.298 540.021 845.617C541.252 846.936 542.92 847.678 544.659 847.68H1135.25C1136.99 847.678 1138.66 846.936 1139.89 845.617C1141.12 844.298 1141.81 842.509 1141.82 840.643V683.542C1141.81 681.677 1141.12 679.888 1139.89 678.569C1138.66 677.249 1136.99 676.507 1135.25 676.505H544.659Z" fill="#3F3D56"/>
<path d="M621.217 811.351C646.587 811.351 667.152 789.297 667.152 762.092C667.152 734.887 646.587 712.834 621.217 712.834C595.848 712.834 575.282 734.887 575.282 762.092C575.282 789.297 595.848 811.351 621.217 811.351Z" fill="#58AFC4"/>
<path d="M727.306 729.253C725.275 729.253 723.328 730.118 721.892 731.658C720.457 733.197 719.65 735.285 719.65 737.463C719.65 739.64 720.457 741.728 721.892 743.268C723.328 744.808 725.275 745.673 727.306 745.673H921.983C924.014 745.673 925.961 744.808 927.397 743.268C928.832 741.728 929.639 739.64 929.639 737.463C929.639 735.285 928.832 733.197 927.397 731.658C925.961 730.118 924.014 729.253 921.983 729.253H727.306Z" fill="#E6E6E6"/>
<path d="M727.306 778.512C725.275 778.512 723.328 779.377 721.892 780.916C720.457 782.456 719.65 784.544 719.65 786.722C719.65 788.899 720.457 790.987 721.892 792.527C723.328 794.066 725.275 794.931 727.306 794.931H1088.22C1090.25 794.931 1092.2 794.066 1093.64 792.527C1095.07 790.987 1095.88 788.899 1095.88 786.722C1095.88 784.544 1095.07 782.456 1093.64 780.916C1092.2 779.377 1090.25 778.512 1088.22 778.512H727.306Z" fill="#E6E6E6"/>
<path d="M1452.97 812.529C1427.32 895.042 1322.39 807.528 1322.39 807.528L1350.37 494.976C1392.35 459.97 1436.65 489.975 1436.65 489.975L1452.97 812.529Z" fill="#E6E6E6"/>
<path d="M1447.46 1089.46L1483.21 1089.86L1474.28 1200.37L1447.47 1200.38L1447.46 1089.46Z" fill="#FFB8B8"/>
<path d="M1440.62 1190.99H1493.44C1502.36 1191 1510.91 1194.8 1517.22 1201.57C1523.53 1208.34 1527.08 1217.51 1527.09 1227.08V1228.25H1440.62V1190.99Z" fill="#2F2E41"/>
<path d="M1350.54 1089.46L1310.96 1089.45L1323.72 1200.37L1350.53 1200.38L1350.54 1089.46Z" fill="#FFB8B8"/>
<path d="M1270.9 1228.25V1227.08C1270.9 1217.5 1274.45 1208.32 1280.76 1201.56C1287.07 1194.79 1295.64 1190.99 1304.56 1190.99L1357.37 1190.99L1357.37 1228.25L1270.9 1228.25Z" fill="#2F2E41"/>
<path d="M1445.05 1181.23L1398.21 888.441L1354.81 1177.46L1310.84 1180.08L1299.12 792.843L1300 792.631C1307.27 790.886 1478.36 750.591 1506.4 808.235L1506.54 808.527L1483.14 1182.55L1445.05 1181.23Z" fill="#2F2E41"/>
<path d="M1395.41 458.349C1425.08 458.349 1449.13 432.555 1449.13 400.737C1449.13 368.919 1425.08 343.125 1395.41 343.125C1365.74 343.125 1341.68 368.919 1341.68 400.737C1341.68 432.555 1365.74 458.349 1395.41 458.349Z" fill="#FFB8B8"/>
<path d="M1440.54 837.22C1434.24 835.35 1429.71 827.595 1426.26 812.813C1425.67 810.265 1369.89 555.468 1417.06 509.306L1427.93 476.917L1442.81 487.555C1448.08 487.607 1501.92 489.069 1506.52 526.077C1511.02 562.302 1523.28 805.005 1510.96 820.102C1510.72 820.434 1510.41 820.706 1510.06 820.896C1509.71 821.086 1509.32 821.191 1508.93 821.203C1496.44 821.203 1492.65 806.34 1491.76 801.602C1488.79 802.922 1479.94 807.769 1465.4 823.359C1456.4 833.017 1449.33 837.645 1443.5 837.645C1442.5 837.648 1441.51 837.505 1440.54 837.22Z" fill="#2F2E41"/>
<path d="M1323.95 823.359C1309.41 807.764 1300.56 802.919 1297.6 801.603C1296.71 806.34 1292.92 821.203 1280.42 821.203C1280.03 821.191 1279.65 821.086 1279.3 820.896C1278.94 820.705 1278.64 820.435 1278.4 820.102C1266.07 805.007 1278.33 562.303 1282.84 526.077C1287.44 489.069 1341.28 487.607 1346.54 487.555L1361.42 476.917L1372.3 509.306C1419.46 555.465 1363.69 810.265 1363.09 812.813C1359.65 827.595 1355.11 835.35 1348.81 837.22C1347.85 837.505 1346.85 837.648 1345.85 837.645C1340.02 837.645 1332.96 833.016 1323.95 823.359Z" fill="#2F2E41"/>
<path d="M1439.76 433.646C1448.85 426.635 1455.73 416.823 1459.5 405.516C1463.26 394.208 1463.72 381.94 1460.82 370.344C1457.92 358.748 1451.8 348.373 1443.27 340.599C1434.74 332.825 1424.2 328.02 1413.06 326.825C1408.11 326.294 1402.79 326.373 1398.69 323.361C1395.04 320.685 1393.08 316.044 1389.73 312.956C1387.61 311.192 1385.16 309.918 1382.56 309.213C1379.95 308.509 1377.24 308.389 1374.58 308.861C1369.29 309.84 1364.16 311.648 1359.35 314.227C1347.44 319.922 1334.78 326.932 1329.36 339.654C1324.66 350.673 1326.73 364.261 1333.38 374.058C1340.37 383.753 1350.56 390.206 1361.85 392.086C1373.08 393.884 1384.54 392.777 1395.29 388.857C1402.38 386.464 1409.38 383.204 1416.81 382.938C1422.61 382.73 1428.33 384.377 1433.25 387.668C1438.18 390.959 1442.08 395.746 1444.46 401.42C1446.83 407.095 1447.59 413.4 1446.61 419.533C1445.64 425.667 1442.99 431.352 1439 435.865" fill="#2F2E41"/>
<path d="M1146.94 776.367C1150.04 776.289 1153.1 775.558 1155.93 774.214C1158.77 772.87 1161.34 770.939 1163.48 768.533C1165.62 766.126 1167.3 763.291 1168.42 760.188C1169.54 757.086 1170.08 753.777 1170.01 750.451L1201.34 693.765L1177.13 669.967L1144.13 725.818C1138.04 726.445 1132.41 729.581 1128.44 734.566C1124.46 739.551 1122.44 745.995 1122.81 752.544C1123.17 759.092 1125.89 765.234 1130.39 769.677C1134.89 774.121 1140.82 776.519 1146.94 776.367V776.367Z" fill="#FFB8B8"/>
<path d="M1510.42 838.467C1513.02 836.65 1515.26 834.302 1517.01 831.557C1518.77 828.811 1520 825.723 1520.64 822.467C1521.28 819.212 1521.31 815.853 1520.74 812.582C1520.17 809.312 1519 806.195 1517.31 803.407L1516.11 737.526L1483.85 730.962L1483.21 797.079C1478.34 801.051 1475.1 806.893 1474.17 813.376C1473.24 819.86 1474.68 826.479 1478.21 831.841C1481.73 837.202 1487.06 840.889 1493.07 842.125C1499.08 843.361 1505.3 842.049 1510.42 838.467V838.467Z" fill="#FFB8B8"/>
<path d="M1156.47 685.22L1156.1 684.597L1156.46 683.974C1203.46 603.052 1302.1 501.967 1303.09 500.955L1303.4 500.636L1315.59 500.503L1328.76 535.687C1324.66 544.146 1214.15 709.523 1199.55 720.492C1198.39 721.355 1197.07 721.945 1195.69 722.226C1194.3 722.506 1192.87 722.47 1191.49 722.12C1189.06 721.519 1186.75 720.462 1184.66 718.999C1171.19 710.055 1157.16 686.39 1156.47 685.22Z" fill="#2F2E41"/>
<path d="M1477.71 777.561C1476.4 777.082 1475.19 776.316 1474.17 775.313C1473.16 774.31 1472.34 773.091 1471.78 771.733C1464.75 754.129 1494.9 531.768 1496.19 522.311L1496.43 520.522L1506.63 527.449L1506.73 527.921C1507.03 529.341 1536.72 670.999 1528.67 765.127L1528.62 765.8L1528.04 766.084C1526.82 766.694 1502.08 778.874 1485.6 778.874C1482.92 778.95 1480.24 778.505 1477.71 777.561V777.561Z" fill="#2F2E41"/>
<path d="M1680.81 1230H1098.97C1098.39 1230 1097.83 1229.75 1097.42 1229.31C1097.01 1228.87 1096.78 1228.28 1096.78 1227.65C1096.78 1227.03 1097.01 1226.44 1097.42 1226C1097.83 1225.56 1098.39 1225.31 1098.97 1225.31H1680.81C1681.39 1225.31 1681.95 1225.56 1682.36 1226C1682.77 1226.44 1683 1227.03 1683 1227.65C1683 1228.28 1682.77 1228.87 1682.36 1229.31C1681.95 1229.75 1681.39 1230 1680.81 1230Z" fill="#3F3D56"/>
</g>
<defs>
<clipPath id="clip0_628:375">
<rect width="1683" height="1230" fill="white"/>
</clipPath>
</defs>
</svg>
