<svg width="534" height="374" viewBox="0 0 534 374" fill="none" xmlns="http://www.w3.org/2000/svg">
<path opacity="0.1" d="M53.6128 37.1253C50.2951 38.4232 46.8902 40.089 45.067 43.0092C43.136 46.0939 43.3671 49.9245 43.7266 53.4935C46.8594 84.4478 55.1124 117.368 40.8609 145.407C33.9431 159.01 22.3725 169.911 13.1693 182.265C3.96621 194.618 -2.98236 210.042 1.29052 224.575C6.50836 242.333 25.9828 252.178 39.1096 265.844C47.7016 274.779 53.7258 285.636 61.7425 295.036C69.7593 304.435 80.7445 312.716 93.5426 313.268C111.949 314.067 126.925 299.079 144.971 295.607C163.46 292.053 182.077 301.099 197.068 311.927C212.059 322.755 225.694 335.874 243.16 342.634C262.45 350.106 284.194 348.964 304.501 353.453C322.989 357.545 340.009 366.247 358.364 370.886C376.719 375.526 398.232 375.245 412.453 363.395C430.987 347.898 429.529 320.295 441.366 299.796C452.362 280.75 473.886 269.379 488.373 252.541C514.442 222.236 513.589 175.916 491.455 142.957C469.32 109.998 429.226 90.0411 388.228 84.8449C369.739 82.5059 350.701 82.8255 332.927 77.5034C285.35 63.266 257.037 12.2534 208.464 1.63831C177.588 -5.09783 147.56 6.56813 121.26 20.9266C98.4318 33.3916 77.3704 27.8323 53.6128 37.1253Z" fill="#58AFC4"/>
<path d="M100 137.679C100 137.679 82.5341 152.942 63.7888 153.397C55.9171 153.542 48.3087 156.048 42.1061 160.538C39.1742 162.684 36.4608 165.075 34 167.679" stroke="#535461" stroke-width="2" stroke-miterlimit="10"/>
<path d="M22.0542 168.35C24.5341 167.135 34 167.942 34 167.942C34 167.942 29.0906 175.786 26.6107 177C26.0168 177.339 25.3569 177.558 24.6719 177.641C23.9869 177.724 23.2914 177.671 22.6286 177.485C21.9659 177.298 21.3498 176.983 20.8188 176.558C20.2878 176.132 19.8532 175.607 19.5418 175.013C19.2304 174.419 19.0489 173.77 19.0086 173.106C18.9683 172.441 19.07 171.776 19.3075 171.152C19.5449 170.527 19.9131 169.956 20.389 169.474C20.865 168.992 21.4386 168.609 22.0743 168.35H22.0542Z" fill="#58AFC4"/>
<path d="M32.1361 154.687C34.7972 154.949 42 160.191 42 160.191C42 160.191 33.7599 163.924 31.123 163.666C29.8894 163.493 28.7751 162.882 28.0121 161.962C27.2491 161.041 26.8961 159.882 27.0266 158.725C27.1571 157.569 27.7611 156.503 28.7128 155.751C29.6645 154.999 30.8906 154.618 32.1361 154.687V154.687Z" fill="#58AFC4"/>
<path d="M56.0709 143.501C58.3761 145.102 62 153.679 62 153.679C62 153.679 52.2342 152.979 49.929 151.383C48.89 150.592 48.2145 149.453 48.043 148.204C47.8715 146.955 48.2171 145.691 49.008 144.676C49.7989 143.661 50.9743 142.973 52.2897 142.754C53.6051 142.535 54.9594 142.802 56.0709 143.501V143.501Z" fill="#58AFC4"/>
<path d="M76.5425 138.316C79.0317 139.522 84 147.379 84 147.379C84 147.379 74.5178 148.244 72.0286 147.038C71.4005 146.772 70.8349 146.386 70.3661 145.903C69.8973 145.419 69.5352 144.848 69.3018 144.225C69.0684 143.602 68.9686 142.94 69.0086 142.278C69.0485 141.616 69.2273 140.969 69.5341 140.377C69.8408 139.784 70.2691 139.258 70.7929 138.83C71.3167 138.403 71.9249 138.083 72.5806 137.89C73.2363 137.698 73.9257 137.636 74.6068 137.709C75.288 137.782 75.9465 137.989 76.5425 138.316V138.316Z" fill="#58AFC4"/>
<path d="M47.8295 169.053C48.6485 166.504 46.2512 157.679 46.2512 157.679C46.2512 157.679 39.1193 163.64 38.3002 166.189C38.0694 166.805 37.97 167.459 38.0079 168.113C38.0458 168.766 38.2203 169.406 38.5208 169.992C38.8213 170.579 39.2415 171.1 39.7561 171.524C40.2706 171.949 40.8688 172.268 41.5143 172.462C42.1599 172.656 42.8394 172.721 43.5116 172.653C44.1839 172.585 44.8349 172.386 45.4254 172.067C46.0158 171.749 46.5333 171.317 46.9465 170.799C47.3598 170.281 47.6601 169.687 47.8295 169.053V169.053Z" fill="#58AFC4"/>
<path d="M70.99 163.586C70.99 160.783 65.965 152.679 65.965 152.679C65.965 152.679 60.995 160.804 61 163.617C61.004 164.963 61.5346 166.253 62.4751 167.203C63.4156 168.152 64.6889 168.683 66.015 168.679C67.3411 168.675 68.6112 168.136 69.5461 167.181C70.481 166.226 71.004 164.933 71 163.586H70.99Z" fill="#58AFC4"/>
<path d="M93.955 154.833C94.4647 152.18 90.4754 143.679 90.4754 143.679C90.4754 143.679 83.544 150.566 83.0398 153.219C82.8695 154.464 83.2503 155.718 84.1032 156.722C84.9561 157.727 86.2155 158.403 87.62 158.611C89.0245 158.82 90.4662 158.544 91.6458 157.841C92.8255 157.139 93.6524 156.063 93.955 154.838V154.833Z" fill="#58AFC4"/>
<path d="M123 95.6792C123 95.6792 101.61 84.7456 95.2518 67.9966C92.6396 60.9536 87.6424 54.8895 81.0108 50.715C77.8462 48.7553 74.4952 47.0697 71 45.6792" stroke="#535461" stroke-width="2" stroke-miterlimit="10"/>
<path d="M67.7677 35.0421C69.8053 37.0825 72 46.6792 72 46.6792C72 46.6792 62.3831 44.4353 60.3456 42.3896C59.4458 41.3941 58.9647 40.092 59.002 38.7528C59.0393 37.4137 59.5921 36.1402 60.546 35.1959C61.4998 34.2517 62.7816 33.709 64.126 33.6804C65.4703 33.6518 66.7743 34.1393 67.7677 35.0421V35.0421Z" fill="#58AFC4"/>
<path d="M84.9259 40.6758C85.5531 43.2469 81.9934 51.6792 81.9934 51.6792C81.9934 51.6792 74.8025 45.2086 74.1753 42.6327C73.9891 42.0097 73.9508 41.3606 74.0626 40.7245C74.1744 40.0883 74.434 39.4784 74.8258 38.9315C75.2176 38.3847 75.7335 37.9122 76.3422 37.5427C76.9508 37.1732 77.6398 36.9142 78.3673 36.7815C79.0949 36.6488 79.8459 36.6452 80.5752 36.7707C81.3044 36.8962 81.9967 37.1483 82.6102 37.5119C83.2237 37.8754 83.7457 38.3428 84.1446 38.8857C84.5436 39.4287 84.8112 40.036 84.9314 40.671L84.9259 40.6758Z" fill="#58AFC4"/>
<path d="M102.719 58.1698C101.845 60.7483 94.5494 66.6792 94.5494 66.6792C94.5494 66.6792 92.33 57.6423 93.2037 55.0589C93.6239 53.8167 94.5293 52.7893 95.721 52.2027C96.9126 51.616 98.2928 51.5182 99.5579 51.9307C100.823 52.3433 101.869 53.2324 102.467 54.4024C103.064 55.5725 103.164 56.9276 102.744 58.1698H102.719Z" fill="#58AFC4"/>
<path d="M113.901 75.3434C113.486 77.9183 107.345 84.6792 107.345 84.6792C107.345 84.6792 103.617 76.4962 104.032 73.9213C104.101 73.2849 104.306 72.6684 104.635 72.1092C104.964 71.55 105.409 71.0598 105.944 70.6681C106.479 70.2765 107.092 69.9916 107.747 69.8309C108.402 69.6701 109.085 69.6367 109.753 69.7328C110.422 69.8288 111.064 70.0524 111.639 70.3897C112.213 70.7271 112.71 71.1714 113.098 71.6955C113.485 72.2197 113.757 72.8129 113.895 73.4391C114.033 74.0654 114.035 74.7116 113.901 75.3386V75.3434Z" fill="#58AFC4"/>
<path d="M74.1356 58.6699C76.938 58.6429 85 54.0621 85 54.0621C85 54.0621 76.8212 49.6523 74.0188 49.6793C72.6723 49.693 71.3872 50.1803 70.446 51.0339C69.5049 51.8875 68.9849 53.0374 69.0003 54.2309C69.0158 55.4243 69.5656 56.5634 70.5286 57.3975C71.4916 58.2317 72.7891 58.6926 74.1356 58.6789V58.6699Z" fill="#58AFC4"/>
<path d="M87.5519 78.3662C90.1034 77.5113 96 70.2819 96 70.2819C96 70.2819 87.0844 68.0171 84.533 68.872C83.9033 69.0565 83.3164 69.3695 82.8073 69.7923C82.2982 70.215 81.8773 70.7389 81.57 71.3325C81.2626 71.9261 81.0749 72.5773 81.0183 73.247C80.9616 73.9168 81.0371 74.5915 81.2402 75.2306C81.4433 75.8697 81.7699 76.4602 82.2004 76.9668C82.6309 77.4733 83.1565 77.8855 83.7457 78.1787C84.335 78.4719 84.9757 78.6401 85.6297 78.6731C86.2837 78.7062 86.9375 78.6035 87.5519 78.3712V78.3662Z" fill="#58AFC4"/>
<path d="M102.988 95.5856C105.743 95.1857 113 89.0877 113 89.0877C113 89.0877 104.28 85.309 101.529 85.7088C100.852 85.778 100.196 85.9822 99.6 86.3092C99.0044 86.6362 98.4818 87.0791 98.0636 87.6115C97.6454 88.1438 97.3404 88.7544 97.1668 89.4066C96.9931 90.0587 96.9546 90.739 97.0534 91.4063C97.1523 92.0736 97.3864 92.7142 97.7418 93.2895C98.0972 93.8648 98.5665 94.3629 99.1214 94.7539C99.6763 95.1448 100.305 95.4205 100.971 95.5643C101.636 95.7081 102.324 95.717 102.993 95.5906L102.988 95.5856Z" fill="#58AFC4"/>
<path d="M268 361.679C370.725 361.679 454 283.105 454 186.179C454 89.2532 370.725 10.6792 268 10.6792C165.275 10.6792 82 89.2532 82 186.179C82 283.105 165.275 361.679 268 361.679Z" fill="url(#paint0_linear_631:323)"/>
<path d="M268 358.679C369.068 358.679 451 281.448 451 186.179C451 90.9101 369.068 13.6792 268 13.6792C166.932 13.6792 85 90.9101 85 186.179C85 281.448 166.932 358.679 268 358.679Z" fill="#58AFC4"/>
<path d="M268 322.679C348.081 322.679 413 261.342 413 185.679C413 110.016 348.081 48.6792 268 48.6792C187.919 48.6792 123 110.016 123 185.679C123 261.342 187.919 322.679 268 322.679Z" fill="#DDE1EC"/>
<path opacity="0.3" d="M272 72.6792H264V193.679H272V72.6792Z" fill="#535461"/>
<g opacity="0.1">
<path opacity="0.1" d="M392.848 183.029H276.782V192.712H392.848V183.029Z" fill="black"/>
<path opacity="0.1" d="M194.838 146.8L190.073 155.378L263.103 191.434L267.868 182.855L194.838 146.8Z" fill="black"/>
<path opacity="0.1" d="M268.051 202.396C276.56 202.396 283.458 195.892 283.458 187.87C283.458 179.848 276.56 173.345 268.051 173.345C259.542 173.345 252.644 179.848 252.644 187.87C252.644 195.892 259.542 202.396 268.051 202.396Z" fill="black"/>
</g>
<path d="M393 180.679H277V190.679H393V180.679Z" fill="#535461"/>
<path d="M267.902 180.929L194.872 144.874L190.107 153.452L263.137 189.508L267.902 180.929Z" fill="#535461"/>
<path d="M268 200.679C276.284 200.679 283 194.187 283 186.179C283 178.171 276.284 171.679 268 171.679C259.716 171.679 253 178.171 253 186.179C253 194.187 259.716 200.679 268 200.679Z" fill="#535461"/>
<g opacity="0.1">
<path opacity="0.1" d="M134 202.396C134 126.719 199.069 65.3736 279.339 65.3736C301.869 65.3548 324.094 70.282 344.254 79.765C364.414 89.2479 381.955 103.026 395.487 120.008C370.754 77.633 322.992 48.9116 268.041 48.9116C187.77 48.9116 122.702 110.257 122.702 185.934C122.654 215.663 132.91 244.593 151.908 268.321C140.126 248.125 133.965 225.444 134 202.396V202.396Z" fill="black"/>
</g>
<path d="M402.732 85.1463C401.002 83.5816 386.443 93.8658 386.443 93.8658C386.443 93.8658 381.259 94.7572 382.494 98.1045C383.73 101.452 377.063 120.199 377.063 120.199L374.35 116.629C374.612 112.438 373.387 109.469 372.193 107.618C372.095 107.468 371.997 107.323 371.899 107.187L372.373 107.032C372.193 104.746 368.306 101.263 366.241 99.5577C366.241 99.3107 366.241 99.0733 366.241 98.8214C366.37 96.0893 367.533 93.207 366.241 90.7316C364.779 87.9075 360.501 86.4881 360.14 83.3878C359.924 81.5374 361.252 79.8661 361.839 78.0834C363.24 73.8205 360.331 69.4705 357.551 65.7986C356.609 64.4219 355.463 63.1789 354.148 62.1073C352.895 61.2453 351.518 60.5538 350.06 60.0534C345.988 58.5032 341.823 57.7233 337.622 56.6624C333.591 55.6548 329.874 55.1753 325.781 56.4396C324.809 56.686 323.923 57.165 323.207 57.8299C322.234 58.8568 322.105 60.3198 321.467 61.5454C320.437 63.5169 318.218 64.6941 316.256 65.9584C314.295 67.2228 312.328 68.957 312.318 71.1369C312.318 74.2323 316.076 76.1797 317.332 79.062C318.506 81.7456 317.332 84.7345 316.679 87.5635C316.405 88.4779 316.379 89.4419 316.601 90.3683C316.861 91.0588 317.251 91.699 317.755 92.2576C318.532 93.2264 319.366 94.1274 320.195 95.0478L319.814 95.1883C312.905 94.5198 308.462 102.774 308.462 102.774C308.781 102.837 309.085 102.91 309.383 102.992L309.09 103.351C307.002 105.902 305.296 108.71 304.019 111.697L298.356 118.838C298.356 118.838 297.12 100.982 300.086 96.9661C303.051 92.9503 297.372 90.4943 297.372 90.4943C297.372 90.4943 285.017 77.5506 283.302 78.6647C281.588 79.7789 287.498 93.8416 292.682 96.0748C292.682 96.0748 293.197 100.536 292.168 103.438C291.545 105.274 288.219 124.641 288.219 124.641C288.219 124.641 285.259 140.932 298.835 132.876C307.654 127.654 313.353 118.663 316.256 113.015C316.459 112.618 316.649 112.238 316.828 111.877C316.962 112.476 317.053 113.082 317.101 113.693L317.616 132.358C317.746 136.974 316.675 141.551 314.496 145.689L308.446 157.233L309.121 157.426L308.714 157.979C304.729 163.496 297.954 175.902 311.901 182.224L330.435 184.457L329.446 188.919C329.446 188.919 321.796 202.531 319.572 211.904C318.191 217.644 316.033 223.194 313.152 228.418L313.723 228.704C313.605 228.83 313.481 228.961 313.363 229.096C312.239 230.286 311.497 231.75 311.221 233.32L308.709 236.673C308.709 236.673 307.721 250.508 309.697 253.86C310.779 255.691 314.367 256.854 317.42 257.532C321.95 258.544 325.606 254.141 323.201 250.513L323.171 250.464H323.124C322.609 248.211 321.034 241.221 321.549 238.567C321.693 237.811 321.827 237.06 321.894 236.295C322.018 235.289 322.343 234.314 322.851 233.422C322.934 233.272 323.021 233.127 323.109 232.981L323.376 233.088C324.205 233.422 325.024 233.737 325.801 234.013C324.597 235.045 323.742 237.181 324.772 241.575C324.772 241.575 324.87 252.566 325.76 254.296C326.651 256.025 336.618 258.312 338.348 256.529C340.078 254.746 337.236 248.604 337.236 248.604L337.148 248.662C336.577 245.102 335.871 238.727 337.606 236.217C338.307 235.205 338.986 234.158 339.594 233.18L339.969 232.574C343.192 234.086 346.6 235.224 348.464 234.435C348.464 234.435 356.609 216.579 356.114 214.351C355.62 212.122 368.702 186.899 368.702 186.899C368.702 186.899 379.807 175.272 366.236 167.26C361.927 164.707 358.786 162.992 356.506 161.835L354.596 152.437C353.614 147.51 353.789 142.441 355.111 137.585L357.17 130.192L357.34 129.563C357.34 129.563 362.524 119.521 362.277 114.831C362.258 114.467 362.301 114.102 362.406 113.751C362.462 113.974 362.524 114.207 362.591 114.449C363.953 119.323 365.748 124.08 367.956 128.671C371.894 137.032 377.737 136.369 380.94 135.182C381.625 134.932 382.234 134.526 382.711 134C383.188 133.474 383.519 132.845 383.673 132.169C384.826 126.966 387.993 112.39 388.193 108.364C388.373 105.217 388.786 102.085 389.429 98.991C397.553 94.5198 404.462 86.7109 402.732 85.1463Z" fill="url(#paint1_linear_631:323)"/>
<path d="M342 228.073C342 228.073 340.893 230.086 339.378 232.504C338.785 233.456 338.125 234.479 337.448 235.464C335.051 238.943 337.448 250.027 337.448 250.027L332.204 250.679L326.96 248.3L326 240.257V234.374L331.978 228.306L334.6 225.679L342 228.073Z" fill="#F8BDC5"/>
<g opacity="0.1">
<path opacity="0.1" d="M342.051 228.076C342.051 228.076 340.967 230.124 339.483 232.584C337.216 231.442 335.024 230.171 332.92 228.778L332.468 228.478L332.226 228.314L334.794 225.641L342.051 228.076Z" fill="black"/>
</g>
<path d="M366.919 186.786C366.919 186.786 354.439 211.527 354.914 213.718C355.388 215.909 347.614 233.425 347.614 233.425C345.841 234.202 342.583 233.085 339.511 231.604C337.194 230.455 334.956 229.174 332.81 227.768L332.356 227.471L332.083 227.289L352.568 174.519L334.444 162.156L333.103 161.24L325 155.679L349.743 159.84C349.743 159.84 350.604 159.74 355.156 162.108C357.341 163.244 360.378 164.946 364.574 167.506C377.507 175.401 366.919 186.786 366.919 186.786Z" fill="#5E52AD"/>
<g opacity="0.03">
<path opacity="0.03" d="M367.159 186.718C367.159 186.718 354.726 211.706 355.198 213.919C355.671 216.132 347.926 233.823 347.926 233.823C346.159 234.608 342.914 233.48 339.853 231.984C337.545 230.824 335.315 229.53 333.177 228.11L332.725 227.81L332.452 227.626L352.862 174.328L334.805 161.841L333.469 160.916L325.396 155.3L350.047 159.502C350.047 159.502 350.905 159.401 355.44 161.792C357.617 162.94 360.642 164.659 364.822 167.244C377.708 175.219 367.159 186.718 367.159 186.718Z" fill="black"/>
</g>
<path d="M329.471 232.702C329.471 232.702 323.315 231.811 325.45 241.154C325.45 241.154 325.543 252.108 326.398 253.812C327.253 255.516 336.814 257.814 338.467 256.037C340.12 254.26 337.4 248.145 337.4 248.145C337.4 248.145 330.419 252.926 328.523 247.809C326.626 242.692 329.471 232.702 329.471 232.702Z" fill="#5D3E53"/>
<path d="M324.772 231.021C324.121 231.609 323.59 232.306 323.209 233.078C322.734 233.952 322.433 234.901 322.319 235.877C322.259 236.62 322.133 237.358 322.003 238.091C321.43 241.191 323.626 250.375 323.626 250.375L314.9 251.679L311.689 248.418L311 241.243C311.857 238.783 312.321 236.216 312.377 233.626C312.377 231.754 313.382 230.083 314.388 228.865C315.069 228.051 315.85 227.318 316.715 226.679C316.715 226.679 326.612 229.498 324.772 231.021Z" fill="#F8BDC5"/>
<g opacity="0.1">
<path opacity="0.1" d="M325.16 230.73C324.494 231.327 323.952 232.036 323.562 232.821C319.911 231.267 316.075 229.306 314.678 228.58L314.57 228.527C315.266 227.699 316.064 226.953 316.948 226.304C316.948 226.304 327.039 229.18 325.16 230.73Z" fill="black"/>
</g>
<path d="M353.77 180.406C353.77 180.406 347.912 190.776 344.154 199.379C341.689 205.031 336.596 218.488 333.372 227.057L332.9 228.322C331.483 232.114 330.538 234.679 330.538 234.679C329.913 234.683 329.292 234.597 328.695 234.423C328.14 234.283 327.519 234.095 326.857 233.863L326.113 233.597C325.373 233.327 324.572 233.013 323.807 232.684C320.08 231.119 316.106 229.081 314.663 228.337L314.119 228.052C316.871 222.865 318.925 217.376 320.234 211.711C322.344 202.446 329.614 189.008 329.614 189.008L330.554 184.593L312.964 182.386C299.713 176.155 306.151 163.871 309.935 158.418C310.58 157.471 311.278 156.557 312.025 155.679L326.097 158.577C326.097 158.577 328.315 159.244 333.244 161.297L335.508 162.263C338.27 163.456 341.669 164.992 345.776 166.963C359.628 173.551 353.77 180.406 353.77 180.406Z" fill="#5E52AD"/>
<path d="M324.287 249.655C324.8 250.445 325.046 251.355 324.993 252.272C324.94 253.189 324.592 254.071 323.992 254.807C323.392 255.544 322.567 256.101 321.621 256.409C320.675 256.718 319.65 256.763 318.676 256.54C315.734 255.873 312.247 254.732 311.198 252.934C309.284 249.65 310.238 236.073 310.238 236.073L312.755 232.679C312.755 232.679 311.439 247.68 314.554 248.979C317.669 250.278 324.256 249.588 324.256 249.588L324.287 249.655Z" fill="#5D3E53"/>
<path d="M326.608 57.4313C325.686 57.6764 324.849 58.1513 324.182 58.8073C323.273 59.8212 323.171 61.2697 322.555 62.4815C321.595 64.4128 319.523 65.5956 317.684 66.8268C315.844 68.058 314.01 69.7913 314 71.9446C314 75.0056 317.537 76.9272 318.689 79.771C319.786 82.4264 318.689 85.3764 318.078 88.1719C317.823 89.077 317.799 90.0273 318.007 90.9432C318.248 91.6226 318.614 92.2554 319.089 92.8117C321.317 95.7086 324.086 98.2771 325.577 101.575C326.709 104.08 327.022 106.847 327.32 109.565C327.75 113.476 328.179 117.459 327.401 121.322C327.325 121.553 327.325 121.8 327.401 122.031C327.533 122.253 327.742 122.424 327.992 122.514C329.463 123.197 331.062 123.588 332.695 123.665C334.328 123.742 335.96 123.503 337.494 122.961C339.027 122.42 340.43 121.588 341.619 120.516C342.807 119.443 343.757 118.152 344.41 116.72C345.42 114.533 345.809 111.892 347.81 110.473C348.044 110.288 348.325 110.167 348.624 110.12C349.096 110.133 349.553 110.279 349.938 110.54C352.535 111.883 355.683 111.921 358.579 111.371C360.327 111.038 362.116 110.444 363.273 109.14C365.552 106.552 364.284 102.685 364.435 99.3103C364.557 96.6114 365.643 93.7628 364.435 91.3198C363.071 88.5292 359.064 87.129 358.73 84.0776C358.528 82.2526 359.771 80.5966 360.322 78.8391C361.631 74.6242 358.912 70.3272 356.315 66.7013C355.441 65.3487 354.371 64.1214 353.136 63.056C351.972 62.2084 350.685 61.5255 349.316 61.0282C345.511 59.4977 341.631 58.7252 337.694 57.6824C333.924 56.654 330.453 56.176 326.608 57.4313Z" fill="#85555C"/>
<path d="M345.567 120.679H331.963V99.7527C332.367 97.7428 332.604 95.706 332.672 93.6609C332.672 92.9737 332.672 92.2719 332.672 91.5653C332.543 89.0701 331.999 86.5797 330.572 85.0592C326.819 81.0533 342.764 81.7209 342.764 81.7209C343.254 83.5604 343.888 85.3622 344.664 87.111C345.819 89.8396 347.356 92.4082 349.233 94.7476C350.884 96.8293 353 98.5384 355.429 99.7527C364.793 104.207 345.567 120.679 345.567 120.679Z" fill="#F8BDC5"/>
<g opacity="0.1">
<path opacity="0.1" d="M345.122 87.2439C343.74 88.9425 341.892 90.2526 339.778 91.0326C337.663 91.8125 335.363 92.0327 333.125 91.6692C332.997 89.1902 332.452 86.7161 331.025 85.2055C327.271 81.2255 343.222 81.8889 343.222 81.8889C343.711 83.7164 344.347 85.5065 345.122 87.2439V87.2439Z" fill="black"/>
</g>
<path d="M335.5 91.6792C342.404 91.6792 348 86.3066 348 79.6792C348 73.0518 342.404 67.6792 335.5 67.6792C328.596 67.6792 323 73.0518 323 79.6792C323 86.3066 328.596 91.6792 335.5 91.6792Z" fill="#F8BDC5"/>
<path d="M386.918 99.4328C386.298 102.474 385.901 105.55 385.729 108.64C385.537 112.591 382.482 126.916 381.367 132.029C381.226 132.684 380.911 133.298 380.451 133.815C379.991 134.331 379.399 134.735 378.729 134.991C375.633 136.157 370.003 136.81 366.219 128.596C364.085 124.077 362.354 119.405 361.043 114.627C360.579 113.021 360.23 111.388 360 109.74L368.34 105.573C369.125 106.249 369.79 107.035 370.311 107.901C371.463 109.72 372.646 112.639 372.396 116.753L375.002 120.263C375.002 120.263 381.429 101.843 380.215 98.5543C379 95.2659 384.025 94.3874 384.025 94.3874C384.025 94.3874 398.073 84.3061 399.741 85.8375C401.409 87.3689 394.773 95.0451 386.918 99.4328Z" fill="#F8BDC5"/>
<path d="M320 108.709C319.356 110.438 318.615 112.135 317.781 113.792C315.005 119.392 309.565 128.314 301.143 133.474C288.18 141.432 291.008 125.293 291.008 125.293C291.008 125.293 294.182 106.105 294.78 104.289C295.725 101.414 295.25 96.9945 295.25 96.9945C290.301 94.7823 284.645 80.8556 286.291 79.7471C287.937 78.6386 299.709 91.4664 299.709 91.4664C299.709 91.4664 305.132 93.8867 302.289 97.8803C299.445 101.874 300.637 119.547 300.637 119.547L306.092 112.485C307.306 109.538 308.935 106.757 310.938 104.217C311.97 102.895 312.693 102.097 312.693 102.097L320 108.709Z" fill="#F8BDC5"/>
<g opacity="0.1">
<path opacity="0.1" d="M370.497 108.126C368.772 108.727 362.09 111.269 361.351 114.905C360.894 113.285 360.551 111.638 360.324 109.976L368.541 105.773C369.32 106.456 369.98 107.25 370.497 108.126Z" fill="black"/>
</g>
<g opacity="0.1">
<path opacity="0.1" d="M319.531 108.431C318.89 110.161 318.153 111.858 317.323 113.515C317.004 111.327 315.695 105.73 310.513 103.924C311.54 102.602 312.259 101.803 312.259 101.803L319.531 108.431Z" fill="black"/>
</g>
<g opacity="0.1">
<path opacity="0.1" d="M346.041 120.594H332.432V99.8034C332.836 97.8067 333.073 95.783 333.141 93.7512C335.94 96.298 335.246 100.244 335.246 100.244L342.518 115.738L346.041 102.04L344.87 100.273L349.698 94.86C351.35 96.9281 353.467 98.6262 355.897 99.8325C365.274 104.229 346.041 120.594 346.041 120.594Z" fill="black"/>
</g>
<g opacity="0.1">
<path opacity="0.1" d="M355.655 163.047C355.655 163.047 344.994 162.248 335.744 161.87L334.815 161.831C333.5 161.783 332.247 161.744 331.019 161.715C322.042 161.512 311.889 158.553 310.164 158.035C310.811 157.09 311.51 156.176 312.259 155.3L326.336 158.205C326.336 158.205 328.554 158.873 333.485 160.931L325.396 155.3L350.047 159.502C350.047 159.502 350.905 159.401 355.44 161.792L355.655 163.047Z" fill="black"/>
</g>
<path d="M346.275 102.895L345.099 101.119L350.328 95.2173C350.328 95.2173 361.11 100.205 363.936 99.1098C363.936 99.1098 370.768 104.462 371 107.557C371 107.557 361.11 110.666 361.342 115.342C361.574 120.017 356.65 130.007 356.65 130.007L354.587 137.996C353.318 142.838 353.142 147.877 354.072 152.787L355.954 162.679C355.954 162.679 341.114 161.57 331.203 161.346C321.292 161.122 310.005 157.57 310.005 157.57L315.785 146.092C317.87 141.95 318.891 137.403 318.766 132.819L318.25 114.237C318.25 114.237 317.781 104.905 310 103.348C310 103.348 314.239 95.1249 320.828 95.7915C320.828 95.7915 330.43 92.0109 333.281 94.5653C336.133 97.1198 335.431 101.124 335.431 101.124L342.733 116.694L346.275 102.895Z" fill="#ED677B"/>
<g opacity="0.1">
<path opacity="0.1" d="M326.274 77.0471C328.159 77.0471 329.638 75.1636 331.523 75.2604C332.499 75.3089 333.336 75.8947 334.142 76.4225C337.189 78.4115 340.579 79.886 344.162 80.78C345.553 81.1287 347.027 81.3901 348.424 81.0706C349.821 80.751 351.131 79.7149 351.29 78.364C351.329 77.7686 351.245 77.1718 351.043 76.6064C349.462 71.4124 345.884 66.9604 341.008 64.1195C339.057 62.9914 336.674 62.1296 334.512 62.8365C332.56 63.4707 331.302 65.1944 329.89 66.6131C328.825 67.6753 327.616 68.6 326.295 69.3632C325.268 69.949 323.727 70.3315 323.136 71.4064C322.022 73.4109 323.773 77.0277 326.274 77.0471Z" fill="black"/>
</g>
<path d="M326.419 76.4296C328.27 76.4296 329.723 74.5092 331.574 74.608C332.533 74.6573 333.355 75.2547 334.147 75.7927C337.14 77.8208 340.47 79.3241 343.989 80.2357C345.356 80.5911 346.804 80.8577 348.176 80.5319C349.548 80.2061 350.834 79.1496 350.991 77.7723C351.029 77.1653 350.947 76.5567 350.749 75.9803C349.195 70.6845 345.681 66.1453 340.892 63.2488C338.975 62.0986 336.634 61.2199 334.51 61.9406C332.593 62.5873 331.357 64.3447 329.97 65.7912C328.925 66.8742 327.737 67.8171 326.439 68.5952C325.43 69.1925 323.917 69.5825 323.336 70.6784C322.242 72.7419 323.962 76.4049 326.419 76.4296Z" fill="#85555C"/>
<path opacity="0.05" d="M321 126.679C321 126.679 332.301 130.799 339.684 127.596L343.376 127.827C343.376 127.827 349.511 132.097 356 130.188" fill="black"/>
<path opacity="0.05" d="M375 120.679C375 120.679 373.439 124.48 374.217 125.679Z" fill="black"/>
<path opacity="0.05" d="M300 118.679C300 118.679 302.25 123.24 300 124.679Z" fill="black"/>
<path d="M494.71 214.679C494.71 214.679 473.533 235.037 485.488 265.242C497.443 295.447 465 345.679 465 345.679C465 345.679 465.349 345.631 466.012 345.524C509.504 338.142 531.111 290.329 506.928 254.805C497.914 241.595 490.534 226.104 494.71 214.679Z" fill="#58AFC4"/>
<path opacity="0.1" d="M494.71 215.679C494.71 215.679 473.533 235.882 485.488 265.858C497.443 295.834 465 345.679 465 345.679C465 345.679 465.349 345.631 466.012 345.525C509.504 338.2 531.111 290.749 506.928 255.496C497.914 242.391 490.534 227.017 494.71 215.679Z" fill="black"/>
<path d="M495.046 214.679C495.046 214.679 482.958 239.63 495.046 259.987C507.134 280.345 497.093 337.471 465 345.679" stroke="#535461" stroke-miterlimit="10"/>
<path d="M533 296.93C533 296.93 508.453 293.285 506.217 313.801C503.98 334.318 459 337.162 459 337.162L459.843 337.684C496.967 360.416 532.46 352.163 527.108 321.978C525.133 310.761 525.298 299.491 533 296.93Z" fill="#58AFC4"/>
<path d="M533 296.679C533 296.679 513.939 300.592 515.513 316.81C517.087 333.029 487.226 352.467 459 337.057" stroke="#535461" stroke-miterlimit="10"/>
<path d="M511 338.485C511 338.485 491.897 334.858 486.802 330.021C481.706 325.184 458.783 316.725 456.237 322.787C453.692 328.849 421.853 349.384 443.501 353.011C465.149 356.638 494.443 357.834 500.809 355.422C507.174 353.011 511 338.485 511 338.485Z" fill="#A8A8A8"/>
<path opacity="0.2" d="M443.497 350.543C465.153 354.307 494.446 355.549 500.812 353.046C505.665 351.134 509.034 341.954 510.365 337.679L511 337.809C511 337.809 507.179 352.866 500.812 355.374C494.446 357.881 465.148 356.63 443.497 352.871C437.247 351.785 435.458 349.232 436.134 346.003C436.663 348.111 438.842 349.732 443.497 350.543Z" fill="black"/>
<defs>
<linearGradient id="paint0_linear_631:323" x1="268" y1="361.679" x2="268" y2="10.6792" gradientUnits="userSpaceOnUse">
<stop stop-color="#808080" stop-opacity="0.25"/>
<stop offset="0.54" stop-color="#808080" stop-opacity="0.12"/>
<stop offset="1" stop-color="#808080" stop-opacity="0.1"/>
</linearGradient>
<linearGradient id="paint1_linear_631:323" x1="90095.8" y1="120504" x2="90095.8" y2="36266.2" gradientUnits="userSpaceOnUse">
<stop stop-color="#808080" stop-opacity="0.25"/>
<stop offset="0.54" stop-color="#808080" stop-opacity="0.12"/>
<stop offset="1" stop-color="#808080" stop-opacity="0.1"/>
</linearGradient>
</defs>
</svg>
