<svg width="1936" height="1608" viewBox="0 0 1936 1608" fill="none" xmlns="http://www.w3.org/2000/svg">
<g clip-path="url(#clip0_603:203)">
<path d="M1634.62 1116.68C1632.62 1114.05 1631.12 1110.93 1630.24 1107.54C1629.36 1104.14 1629.12 1100.56 1629.53 1097.05C1629.94 1093.53 1631 1090.17 1632.62 1087.19C1634.25 1084.21 1636.4 1081.69 1638.94 1079.81L1622.73 995.705L1658.08 1011.41L1668.05 1088.87C1670.43 1094.14 1671.1 1100.26 1669.94 1106.07C1668.77 1111.88 1665.86 1116.99 1661.73 1120.42C1657.61 1123.84 1652.58 1125.36 1647.58 1124.67C1642.58 1123.98 1637.97 1121.14 1634.62 1116.68V1116.68Z" fill="#FFB8B8"/>
<path d="M1632.18 1049.93L1601.1 978.565L1605.3 798.855L1607.3 803.853C1609.63 809.676 1664.15 946.794 1660.26 992.697L1666.49 1034.65L1632.18 1049.93Z" fill="#3F3D56"/>
<path d="M1611.91 1577.37H1636.83L1648.69 1463.2L1611.91 1463.2L1611.91 1577.37Z" fill="#FFB8B8"/>
<path d="M1605.56 1567.71L1654.63 1567.7H1654.63C1662.93 1567.7 1670.88 1571.62 1676.75 1578.58C1682.61 1585.55 1685.9 1595 1685.9 1604.85V1606.06L1605.56 1606.06L1605.56 1567.71Z" fill="#2F2E41"/>
<path d="M1365.71 1554.87L1389.72 1562.8L1426.89 1456.58L1391.46 1444.87L1365.71 1554.87Z" fill="#FFB8B8"/>
<path d="M1361.76 1543.54L1409.04 1559.16L1409.05 1559.16C1417.04 1561.8 1423.82 1568.1 1427.9 1576.68C1431.97 1585.26 1433.02 1595.41 1430.8 1604.9L1430.52 1606.06L1353.11 1580.5L1361.76 1543.54Z" fill="#2F2E41"/>
<path d="M1587.07 1532.86L1536.78 1105.13L1428.16 1530.44L1342.76 1495.8L1465.17 926.299L1465.97 926.232L1594.2 915.637L1686.84 1498.29L1587.07 1532.86Z" fill="#2F2E41"/>
<path d="M1573.77 724.747C1573.77 724.747 1527.02 695.774 1464.02 707.846C1464.02 707.846 1430.48 803.956 1464.02 842.216L1473.16 938.421C1473.16 938.421 1558.53 998.781 1586.98 928.763L1582.92 849.088C1582.92 849.088 1603.24 810.876 1586.98 782.902C1577.23 765.813 1572.58 745.34 1573.77 724.747V724.747Z" fill="#58AFC4"/>
<path d="M1579.69 1162.34L1587.9 960.087L1564.68 719.49L1565.74 719.299C1596.2 713.843 1605.97 776.181 1606.37 778.837L1659.39 1134.93L1579.69 1162.34Z" fill="#3F3D56"/>
<path d="M1476.32 1164.44L1382.59 1152.07L1382.61 1150.86C1382.95 1134.37 1391.01 746.814 1413.62 719.366C1436.36 691.754 1479.27 703.701 1481.09 704.226L1481.99 704.486L1474.28 868.478L1476.32 1164.44Z" fill="#3F3D56"/>
<path d="M1493.59 932.81C1490.75 933.916 1487.74 934.27 1484.77 933.846C1481.8 933.422 1478.95 932.23 1476.42 930.355C1473.88 928.48 1471.72 925.967 1470.09 922.993C1468.46 920.019 1467.39 916.656 1466.98 913.142L1395.7 896.553L1422.15 864.569L1485.78 885.225C1490.8 884.781 1495.78 886.539 1499.77 890.165C1503.77 893.791 1506.51 899.033 1507.47 904.898C1508.44 910.764 1507.55 916.845 1504.99 921.989C1502.43 927.133 1498.38 930.984 1493.59 932.81V932.81Z" fill="#FFB8B8"/>
<path d="M1455.55 913.394L1432.33 907.463C1398.04 919.712 1338.19 876.59 1314.01 857.437C1309.46 853.833 1307.98 846.692 1309.62 836.217C1312.04 821.563 1318.84 808.443 1328.76 799.278L1413.95 719.042L1435.45 714.771L1441.84 757.762L1387.56 827.011L1467.46 878.67L1455.55 913.394Z" fill="#3F3D56"/>
<path d="M1446.36 671.451V615.704C1446.36 592.119 1454.25 569.499 1468.29 552.822C1482.33 536.144 1501.37 526.775 1521.23 526.775C1541.08 526.775 1560.12 536.144 1574.16 552.822C1588.2 569.499 1596.09 592.119 1596.09 615.704V671.451C1596.09 674.618 1595.03 677.654 1593.14 679.894C1591.26 682.133 1588.7 683.393 1586.03 683.397H1456.42C1453.75 683.393 1451.2 682.133 1449.31 679.894C1447.43 677.654 1446.37 674.618 1446.36 671.451V671.451Z" fill="#2F2E41"/>
<path d="M1518.22 682.848C1548.53 682.848 1573.11 653.657 1573.11 617.648C1573.11 581.639 1548.53 552.448 1518.22 552.448C1487.91 552.448 1463.33 581.639 1463.33 617.648C1463.33 653.657 1487.91 682.848 1518.22 682.848Z" fill="#FFB8B8"/>
<path d="M1461.83 617.397C1461.3 616.678 1460.91 615.834 1460.69 614.921C1460.46 614.008 1460.4 613.048 1460.52 612.106L1467.02 558.325C1467.15 557.23 1467.51 556.191 1468.06 555.302C1468.61 554.412 1469.34 553.7 1470.18 553.23C1503.37 534.78 1537.02 534.757 1570.21 553.16C1571.09 553.656 1571.84 554.415 1572.4 555.362C1572.96 556.31 1573.31 557.413 1573.4 558.566L1577.74 612.417C1577.81 613.338 1577.73 614.267 1577.48 615.145C1577.23 616.022 1576.84 616.829 1576.31 617.514C1575.79 618.198 1575.15 618.745 1574.44 619.119C1573.73 619.493 1572.96 619.687 1572.18 619.686H1561.17C1560.11 619.683 1559.07 619.322 1558.17 618.644C1557.28 617.966 1556.56 617 1556.11 615.857L1551.36 603.766C1551.05 602.984 1550.54 602.341 1549.89 601.935C1549.25 601.529 1548.52 601.382 1547.8 601.516C1547.08 601.651 1546.42 602.059 1545.91 602.679C1545.41 603.3 1545.08 604.099 1544.99 604.956L1544.06 613.872C1543.89 615.476 1543.23 616.952 1542.21 618.022C1541.19 619.093 1539.87 619.684 1538.51 619.686H1466.05C1465.25 619.686 1464.46 619.482 1463.73 619.087C1463 618.692 1462.35 618.116 1461.83 617.397Z" fill="#2F2E41"/>
<path d="M1231.33 107.157H0V1017.99H1231.33V107.157Z" fill="#E6E6E6"/>
<path d="M308.088 282.625H82.5703V456.755H308.088V282.625Z" fill="white"/>
<path d="M588.311 282.625H362.793V456.755H588.311V282.625Z" fill="white"/>
<path d="M868.533 282.625H643.016V456.755H868.533V282.625Z" fill="white"/>
<path d="M1148.76 282.625H923.238V456.755H1148.76V282.625Z" fill="white"/>
<path d="M308.088 529.085H82.5703V703.215H308.088V529.085Z" fill="white"/>
<path d="M588.311 529.085H362.793V703.215H588.311V529.085Z" fill="white"/>
<path d="M868.533 529.085H643.016V703.215H868.533V529.085Z" fill="white"/>
<path d="M1148.76 529.085H923.238V703.215H1148.76V529.085Z" fill="white"/>
<path d="M308.088 775.546H82.5703V949.675H308.088V775.546Z" fill="white"/>
<path d="M588.311 775.546H362.793V949.675H588.311V775.546Z" fill="white"/>
<path d="M868.533 775.546H643.016V949.675H868.533V775.546Z" fill="white"/>
<path d="M1148.76 775.546H923.238V949.675H1148.76V775.546Z" fill="white"/>
<path d="M322.49 214.313C341.172 214.313 356.317 196.322 356.317 174.129C356.317 151.937 341.172 133.946 322.49 133.946C303.807 133.946 288.662 151.937 288.662 174.129C288.662 196.322 303.807 214.313 322.49 214.313Z" fill="white"/>
<path d="M881.774 214.313C900.456 214.313 915.601 196.322 915.601 174.129C915.601 151.937 900.456 133.946 881.774 133.946C863.091 133.946 847.946 151.937 847.946 174.129C847.946 196.322 863.091 214.313 881.774 214.313Z" fill="white"/>
<path d="M336.021 0H308.959V184.845H336.021V0Z" fill="#E6E6E6"/>
<path d="M895.305 0H868.243V184.845H895.305V0Z" fill="#E6E6E6"/>
<path d="M1086.99 369.69C1086.98 384.238 1082.55 398.292 1074.52 409.27C1066.48 420.249 1055.38 427.414 1043.25 429.448C1031.13 431.483 1018.79 428.252 1008.51 420.347C998.228 412.443 990.693 400.396 987.29 386.422C983.886 372.447 984.842 357.482 989.982 344.278C995.122 331.073 1004.1 320.516 1015.27 314.545C1026.44 308.575 1039.04 307.592 1050.77 311.777C1062.5 315.963 1072.56 325.036 1079.11 337.329C1084.27 347.01 1087 358.234 1086.99 369.69V369.69Z" fill="#58AFC4"/>
<path d="M1079.11 337.329L1028.91 396.951C1025.76 391.149 1008.18 364.183 1008.18 364.183C1010.43 361.478 1012.84 358.958 1015.38 356.638L1029.95 379.724L1073.24 328.309C1075.43 331.088 1077.4 334.109 1079.11 337.329V337.329Z" fill="white"/>
<path d="M526.55 616.15C526.538 630.698 522.107 644.752 514.071 655.731C506.036 666.709 494.935 673.874 482.808 675.909C470.682 677.943 458.345 674.712 448.064 666.807C437.782 658.903 430.248 646.856 426.844 632.882C423.441 618.907 424.397 603.943 429.537 590.738C434.677 577.534 443.656 566.976 454.824 561.005C465.992 555.035 478.598 554.052 490.327 558.238C502.056 562.423 512.119 571.496 518.668 583.79C523.825 593.47 526.559 604.694 526.55 616.15V616.15Z" fill="#58AFC4"/>
<path d="M518.669 583.789L468.468 643.411C465.313 637.609 447.735 610.643 447.735 610.643C449.988 607.938 452.392 605.418 454.931 603.098L469.507 626.185L512.79 574.769C514.985 577.548 516.953 580.569 518.669 583.789V583.789Z" fill="white"/>
<path d="M246.326 616.15C246.315 630.698 241.884 644.752 233.848 655.731C225.813 666.709 214.712 673.874 202.585 675.909C190.459 677.944 178.122 674.712 167.84 666.808C157.559 658.903 150.024 646.857 146.621 632.882C143.217 618.907 144.173 603.942 149.313 590.738C154.454 577.533 163.432 566.976 174.6 561.005C185.768 555.034 198.375 554.052 210.104 558.237C221.833 562.423 231.896 571.496 238.445 583.789C243.602 593.47 246.336 604.694 246.326 616.15V616.15Z" fill="#58AFC4"/>
<path d="M238.446 583.789L188.246 643.411C185.09 637.609 167.513 610.643 167.513 610.643C169.765 607.938 172.169 605.418 174.708 603.098L189.284 626.185L232.567 574.769C234.762 577.548 236.731 580.569 238.446 583.789V583.789Z" fill="white"/>
<path d="M1933.77 1608H1082.34C1081.75 1608 1081.18 1607.72 1080.76 1607.22C1080.34 1606.72 1080.11 1606.05 1080.11 1605.35C1080.11 1604.64 1080.34 1603.97 1080.76 1603.47C1081.18 1602.97 1081.75 1602.69 1082.34 1602.69H1933.77C1934.36 1602.69 1934.93 1602.97 1935.35 1603.47C1935.76 1603.97 1936 1604.64 1936 1605.35C1936 1606.05 1935.76 1606.72 1935.35 1607.22C1934.93 1607.72 1934.36 1608 1933.77 1608Z" fill="#3F3D56"/>
</g>
<defs>
<clipPath id="clip0_603:203">
<rect width="1936" height="1608" fill="white"/>
</clipPath>
</defs>
</svg>
