<svg width="562" height="469" viewBox="0 0 562 469" fill="none" xmlns="http://www.w3.org/2000/svg">
<g clip-path="url(#clip0_232:81)">
<path d="M305.776 47.8329C313.105 47.8329 319.046 41.1785 319.046 32.9698C319.046 24.7611 313.105 18.1067 305.776 18.1067C298.448 18.1067 292.507 24.7611 292.507 32.9698C292.507 41.1785 298.448 47.8329 305.776 47.8329Z" fill="#58AFC4"/>
<path d="M304.461 38.6396C304.163 38.6402 303.872 38.532 303.633 38.3314L303.619 38.319L300.5 35.6469C300.356 35.5229 300.235 35.3682 300.143 35.1917C300.052 35.0152 299.993 34.8204 299.969 34.6183C299.946 34.4162 299.958 34.2108 300.005 34.0139C300.052 33.8169 300.133 33.6323 300.244 33.4705C300.354 33.3088 300.492 33.173 300.65 33.071C300.807 32.969 300.981 32.9028 301.162 32.8761C301.342 32.8494 301.526 32.8627 301.701 32.9154C301.877 32.9681 302.042 33.059 302.186 33.183L304.206 34.918L308.979 27.943C309.09 27.7813 309.228 27.6456 309.386 27.5437C309.543 27.4417 309.717 27.3755 309.897 27.3488C310.078 27.3221 310.261 27.3355 310.437 27.3881C310.613 27.4408 310.777 27.5317 310.922 27.6557L310.922 27.656L310.892 27.7021L310.923 27.656C311.214 27.9068 311.405 28.2767 311.453 28.6846C311.501 29.0925 311.402 29.5052 311.179 29.8319L305.565 38.0324C305.435 38.2213 305.268 38.3742 305.077 38.4792C304.886 38.5842 304.675 38.6384 304.463 38.6377L304.461 38.6396Z" fill="white"/>
<path d="M305.776 148.312C313.105 148.312 319.046 141.657 319.046 133.449C319.046 125.24 313.105 118.586 305.776 118.586C298.448 118.586 292.507 125.24 292.507 133.449C292.507 141.657 298.448 148.312 305.776 148.312Z" fill="#58AFC4"/>
<path d="M304.461 139.119C304.163 139.119 303.872 139.011 303.633 138.811L303.619 138.798L300.5 136.126C300.356 136.002 300.235 135.847 300.143 135.671C300.052 135.494 299.993 135.3 299.969 135.097C299.946 134.895 299.958 134.69 300.005 134.493C300.052 134.296 300.133 134.112 300.244 133.95C300.354 133.788 300.492 133.652 300.65 133.55C300.807 133.448 300.981 133.382 301.162 133.355C301.342 133.329 301.526 133.342 301.701 133.395C301.877 133.447 302.042 133.538 302.186 133.662L304.206 135.397L308.979 128.422C309.09 128.261 309.228 128.125 309.386 128.023C309.543 127.921 309.717 127.855 309.897 127.828C310.078 127.801 310.261 127.815 310.437 127.867C310.613 127.92 310.777 128.011 310.922 128.135L310.922 128.135L310.892 128.181L310.923 128.135C311.214 128.386 311.405 128.756 311.453 129.164C311.501 129.572 311.402 129.984 311.179 130.311L305.565 138.512C305.435 138.701 305.268 138.853 305.077 138.958C304.886 139.063 304.675 139.118 304.463 139.117L304.461 139.119Z" fill="white"/>
<path d="M339.1 289.63C339.057 288.398 339.256 287.17 339.682 286.033C340.108 284.896 340.752 283.878 341.568 283.05C342.384 282.222 343.352 281.604 344.404 281.24C345.456 280.876 346.566 280.775 347.657 280.944L359.809 254.237L366.676 267.783L354.083 291.068C353.708 293.101 352.681 294.91 351.195 296.151C349.709 297.392 347.869 297.98 346.022 297.803C344.175 297.626 342.45 296.696 341.175 295.19C339.899 293.684 339.161 291.705 339.1 289.63L339.1 289.63Z" fill="#FFB7B7"/>
<path d="M395.758 457.803L386.221 457.802L381.684 416.597L395.76 416.598L395.758 457.803Z" fill="#FFB7B7"/>
<path d="M398.19 468.159L367.438 468.157V467.722C367.438 464.166 368.699 460.756 370.944 458.241C373.189 455.727 376.233 454.315 379.408 454.314H379.408L398.191 454.315L398.19 468.159Z" fill="#2F2E41"/>
<path d="M447.46 457.803L437.922 457.802L433.385 416.597L447.461 416.598L447.46 457.803Z" fill="#FFB7B7"/>
<path d="M449.892 468.159L419.14 468.157V467.722C419.14 464.166 420.401 460.756 422.646 458.241C424.89 455.727 427.935 454.315 431.109 454.314H431.11L449.892 454.315L449.892 468.159Z" fill="#2F2E41"/>
<path d="M353.749 266.386L349.586 274.159C349.586 274.159 356.525 274.159 357.913 285.818L363.464 278.045L353.749 266.386Z" fill="#E5E5E5"/>
<path d="M426.61 250.064C426.61 250.064 437.713 282.709 439.794 302.918C441.876 323.126 445.346 376.757 445.346 376.757L452.285 445.934L432.855 449.043L424.528 379.089L405.793 309.913L401.629 379.089L398.16 442.047L380.118 442.825L378.73 377.535L371.097 294.368L375.26 254.727L426.61 250.064Z" fill="#2F2E41"/>
<path d="M395.384 151.439C404.965 151.439 412.732 142.74 412.732 132.008C412.732 121.276 404.965 112.576 395.384 112.576C385.803 112.576 378.036 121.276 378.036 132.008C378.036 142.74 385.803 151.439 395.384 151.439Z" fill="#FFB7B7"/>
<path d="M413.078 150.964L420.018 156.404L429.039 258.225L372.832 259.779L380.465 189.049L387.404 168.84L392.413 161.423L413.078 150.964Z" fill="#E5E5E5"/>
<path d="M414.467 224.026L416.59 153.716C416.59 153.716 420.712 154.072 422.1 156.404C423.487 158.736 446.387 163.399 446.387 163.399L442.223 235.685C442.223 235.685 459.571 293.202 453.326 296.311C447.081 299.42 435.978 298.643 435.978 298.643L414.467 224.026Z" fill="#2F2E41"/>
<path d="M380.812 215.087L388.173 167.701L371.791 180.11L375.954 214.31L372.485 237.628C372.485 237.628 359.3 302.14 363.464 304.472C367.627 306.804 372.485 304.472 372.485 304.472L380.812 239.182V215.087Z" fill="#2F2E41"/>
<path d="M376.648 178.556L371.791 180.11L369.709 211.201L366.24 238.405L349.586 271.827C349.586 271.827 357.913 265.609 361.382 283.486L379.723 247.719L376.648 178.556Z" fill="#2F2E41"/>
<path d="M409.907 113.494L413.178 112.027C413.178 112.027 406.338 103.592 396.821 104.325L399.498 101.025C399.498 101.025 392.955 98.0908 387.007 105.792C383.881 109.841 380.263 114.6 378.008 119.96H374.504L375.967 123.567L370.849 127.173L376.102 126.525C375.789 128.5 375.741 130.516 375.959 132.507C376.185 134.498 377.092 136.314 378.489 137.57V137.57C378.489 137.57 382.546 128.163 382.546 126.696V130.364C382.546 130.364 385.818 127.063 385.818 124.863L387.602 127.43L388.494 123.396L399.498 127.43L397.713 124.129L404.554 125.23L401.877 121.195L412.467 137.854C412.467 137.854 418.531 118.995 409.907 113.494Z" fill="#2F2E41"/>
<path d="M414.393 283.256C414.564 282.038 414.972 280.877 415.587 279.854C416.202 278.831 417.01 277.972 417.954 277.337C418.898 276.702 419.954 276.307 421.049 276.179C422.144 276.051 423.251 276.193 424.292 276.596L440.842 253.039L445.231 267.82L428.841 287.924C428.121 289.837 426.8 291.388 425.127 292.283C423.455 293.178 421.547 293.354 419.766 292.779C417.985 292.203 416.454 290.916 415.464 289.161C414.474 287.406 414.093 285.305 414.393 283.256V283.256Z" fill="#FFB7B7"/>
<path d="M442.57 274.936L436.325 283.486L427.998 267.164L431.467 260.169L442.57 274.936Z" fill="#E5E5E5"/>
<path d="M441.182 166.12L446.733 163.011C446.733 163.011 450.897 169.229 451.591 174.67C452.285 180.11 455.754 187.106 455.754 190.992C455.754 194.878 465.469 231.41 465.469 231.41L443.264 281.932C443.264 281.932 438.406 263.277 427.998 261.723L445.346 234.519L435.631 215.087L441.182 166.12Z" fill="#2F2E41"/>
<path d="M561.299 468.638H294.288C294.102 468.638 293.924 468.555 293.792 468.408C293.661 468.261 293.587 468.061 293.587 467.853C293.587 467.645 293.661 467.445 293.792 467.298C293.924 467.151 294.102 467.068 294.288 467.068H561.299C561.485 467.068 561.663 467.151 561.795 467.298C561.926 467.445 562 467.645 562 467.853C562 468.061 561.926 468.261 561.795 468.408C561.663 468.555 561.485 468.638 561.299 468.638Z" fill="#CBCBCB"/>
<path d="M255.798 166.418H0V100.479H255.798V166.418Z" fill="white"/>
<path d="M36.9175 122.282C36.2572 122.283 35.6244 122.578 35.1578 123.101C34.6913 123.625 34.4293 124.334 34.4293 125.073C34.4293 125.813 34.6913 126.523 35.1578 127.046C35.6244 127.569 36.2572 127.864 36.9175 127.865H218.891C219.552 127.864 220.184 127.569 220.651 127.046C221.117 126.523 221.379 125.813 221.379 125.073C221.379 124.334 221.117 123.625 220.651 123.101C220.184 122.578 219.552 122.283 218.891 122.282H36.9175Z" fill="#58AFC4"/>
<path d="M36.9176 139.032C36.5903 139.031 36.266 139.103 35.9634 139.242C35.6607 139.382 35.3856 139.587 35.1536 139.846C34.9217 140.104 34.7376 140.412 34.6117 140.75C34.4858 141.089 34.4206 141.451 34.4199 141.818C34.4192 142.185 34.483 142.548 34.6076 142.887C34.7323 143.226 34.9153 143.534 35.1462 143.794C35.3772 144.054 35.6515 144.26 35.9537 144.401C36.2558 144.542 36.5798 144.615 36.9071 144.616H151.953C152.28 144.616 152.605 144.545 152.908 144.405C153.211 144.265 153.486 144.059 153.718 143.8C153.95 143.54 154.134 143.232 154.259 142.893C154.385 142.554 154.449 142.191 154.449 141.824C154.449 141.457 154.385 141.094 154.259 140.755C154.134 140.416 153.95 140.108 153.718 139.848C153.486 139.589 153.211 139.383 152.908 139.243C152.605 139.103 152.28 139.032 151.953 139.032H36.9176Z" fill="#58AFC4"/>
<path d="M255.798 166.418H0V100.479H255.798V166.418ZM4.2049 161.708H251.593V105.189H4.2049V161.708Z" fill="#E5E5E5"/>
<path d="M255.798 266.898H0V200.958H255.798V266.898Z" fill="white"/>
<path d="M36.9175 222.761C36.2572 222.762 35.6244 223.057 35.1578 223.58C34.6913 224.104 34.4293 224.813 34.4293 225.553C34.4293 226.292 34.6913 227.002 35.1578 227.525C35.6244 228.049 36.2572 228.343 36.9175 228.345H218.891C219.552 228.343 220.184 228.049 220.651 227.525C221.117 227.002 221.379 226.292 221.379 225.553C221.379 224.813 221.117 224.104 220.651 223.58C220.184 223.057 219.552 222.762 218.891 222.761H36.9175Z" fill="#E6E6E6"/>
<path d="M36.9176 239.511C36.5903 239.511 36.266 239.582 35.9634 239.722C35.6607 239.861 35.3856 240.066 35.1536 240.325C34.9217 240.584 34.7376 240.891 34.6117 241.229C34.4858 241.568 34.4206 241.931 34.4199 242.297C34.4192 242.664 34.483 243.027 34.6076 243.366C34.7323 243.705 34.9153 244.013 35.1462 244.273C35.3772 244.533 35.6515 244.739 35.9537 244.88C36.2558 245.021 36.5798 245.094 36.9071 245.095H151.953C152.28 245.096 152.605 245.024 152.908 244.884C153.211 244.744 153.486 244.538 153.718 244.279C153.95 244.02 154.134 243.712 154.259 243.373C154.385 243.034 154.449 242.67 154.449 242.303C154.449 241.936 154.385 241.573 154.259 241.234C154.134 240.895 153.95 240.587 153.718 240.327C153.486 240.068 153.211 239.863 152.908 239.723C152.605 239.583 152.28 239.511 151.953 239.511H36.9176Z" fill="#E6E6E6"/>
<path d="M255.798 266.898H0V200.958H255.798V266.898ZM4.2049 262.188H251.593V205.668H4.2049V262.188Z" fill="#E5E5E5"/>
<path d="M257.901 65.9394H2.10242V0H257.901V65.9394Z" fill="white"/>
<path d="M39.02 21.8027C38.3597 21.804 37.7268 22.0987 37.2603 22.6221C36.7938 23.1455 36.5317 23.8549 36.5317 24.5945C36.5317 25.3341 36.7938 26.0435 37.2603 26.5669C37.7268 27.0903 38.3597 27.385 39.02 27.3862H220.994C221.654 27.385 222.287 27.0903 222.753 26.5669C223.22 26.0435 223.482 25.3341 223.482 24.5945C223.482 23.8549 223.22 23.1455 222.753 22.6221C222.287 22.0987 221.654 21.804 220.994 21.8027H39.02Z" fill="#58AFC4"/>
<path d="M39.02 38.5532C38.359 38.5517 37.7245 38.8443 37.2561 39.3668C36.7877 39.8892 36.5237 40.5987 36.5223 41.3391C36.521 42.0795 36.7822 42.7902 37.2486 43.3149C37.7151 43.8395 38.3485 44.1352 39.0095 44.1367H154.055C154.383 44.1373 154.707 44.0656 155.01 43.9256C155.313 43.7855 155.588 43.58 155.82 43.3207C156.052 43.0614 156.236 42.7534 156.362 42.4144C156.487 42.0754 156.552 41.712 156.552 41.345C156.552 40.978 156.487 40.6146 156.362 40.2755C156.236 39.9365 156.052 39.6286 155.82 39.3693C155.588 39.11 155.313 38.9044 155.01 38.7644C154.707 38.6244 154.383 38.5526 154.055 38.5532H39.02Z" fill="#58AFC4"/>
<path d="M257.901 65.9394H2.10242V0H257.901V65.9394ZM6.30732 61.2295H253.696V4.70996H6.30732V61.2295Z" fill="#E5E5E5"/>
<path d="M518.078 469V412.214C518.078 412.214 537.835 452.473 518.078 469Z" fill="#F1F1F1"/>
<path d="M519.298 468.99L481.952 430.587C481.952 430.587 521.79 441.511 519.298 468.99Z" fill="#F1F1F1"/>
<path d="M339.415 287.92C346.744 287.92 352.685 281.265 352.685 273.056C352.685 264.848 346.744 258.193 339.415 258.193C332.087 258.193 326.146 264.848 326.146 273.056C326.146 281.265 332.087 287.92 339.415 287.92Z" fill="#58AFC4"/>
<path d="M338.1 278.726C337.802 278.727 337.511 278.619 337.272 278.418L337.258 278.406L334.139 275.734C333.995 275.61 333.873 275.455 333.782 275.278C333.691 275.102 333.632 274.907 333.608 274.705C333.584 274.503 333.596 274.297 333.643 274.1C333.69 273.903 333.771 273.718 333.882 273.556C333.993 273.395 334.131 273.259 334.288 273.157C334.446 273.055 334.62 272.989 334.801 272.962C334.981 272.935 335.165 272.949 335.34 273.002C335.516 273.054 335.681 273.145 335.826 273.27L337.845 275.005L342.619 268.03C342.729 267.868 342.867 267.732 343.025 267.63C343.182 267.528 343.356 267.462 343.536 267.435C343.717 267.409 343.9 267.422 344.076 267.475C344.252 267.527 344.416 267.618 344.561 267.742L344.561 267.743L344.531 267.789L344.562 267.743C344.853 267.993 345.044 268.363 345.092 268.771C345.14 269.179 345.041 269.592 344.818 269.919L339.204 278.119C339.074 278.308 338.907 278.461 338.716 278.566C338.525 278.671 338.314 278.725 338.102 278.724L338.1 278.726Z" fill="white"/>
</g>
<defs>
<clipPath id="clip0_232:81">
<rect width="562" height="469" fill="white"/>
</clipPath>
</defs>
</svg>
