<svg width="568" height="299" viewBox="0 0 568 299" fill="none" xmlns="http://www.w3.org/2000/svg">
<path d="M564.871 277.856C564.809 277.978 564.684 278.078 564.523 278.132C564.362 278.187 564.178 278.192 564.012 278.147L32.9245 131.99C32.7588 131.944 32.6245 131.851 32.551 131.732C32.4776 131.613 32.471 131.477 32.5327 131.355C32.5944 131.232 32.7194 131.132 32.8802 131.078C33.0411 131.023 33.2246 131.018 33.3906 131.063L564.478 277.22C564.644 277.266 564.778 277.359 564.852 277.478C564.925 277.597 564.932 277.733 564.871 277.856Z" fill="#F2F2F2"/>
<path d="M281.965 0H155.415C145.488 0.0083075 135.97 2.92857 128.951 8.12012C121.931 13.3117 117.983 20.3505 117.971 27.6925V36.1523C117.712 36.0994 117.439 36.092 117.175 36.1304C116.91 36.1689 116.662 36.2523 116.448 36.374C116.235 36.4958 116.063 36.6525 115.946 36.8318C115.828 37.0112 115.769 37.2082 115.772 37.4075V43.9131C115.769 44.1123 115.828 44.3094 115.946 44.4887C116.063 44.6681 116.235 44.8248 116.448 44.9465C116.662 45.0682 116.91 45.1516 117.175 45.1901C117.439 45.2286 117.712 45.2211 117.971 45.1682V55.0187C117.712 54.9658 117.439 54.9583 117.175 54.9968C116.91 55.0352 116.662 55.1186 116.448 55.2403C116.235 55.3621 116.063 55.5188 115.946 55.6982C115.828 55.8775 115.769 56.0746 115.772 56.2738V72.5379C115.769 72.7372 115.828 72.9342 115.946 73.1136C116.063 73.2929 116.235 73.4497 116.448 73.5714C116.662 73.6931 116.91 73.7765 117.175 73.815C117.439 73.8534 117.712 73.8459 117.971 73.793V79.7402C117.712 79.6873 117.439 79.6797 117.175 79.7182C116.91 79.7567 116.662 79.8401 116.448 79.9618C116.235 80.0835 116.063 80.2402 115.946 80.4196C115.828 80.599 115.769 80.796 115.772 80.9953V97.2594C115.769 97.4586 115.828 97.6557 115.946 97.835C116.063 98.0144 116.235 98.1711 116.448 98.2928C116.662 98.4146 116.91 98.498 117.175 98.5364C117.439 98.5749 117.712 98.5674 117.971 98.5145V270.266C117.983 277.608 121.931 284.647 128.951 289.838C135.97 295.03 145.488 297.95 155.415 297.958H281.965C291.892 297.95 301.41 295.03 308.429 289.838C315.449 284.647 319.397 277.608 319.408 270.266V27.6925C319.397 20.3505 315.449 13.3117 308.429 8.12012C301.41 2.92857 291.892 0.0083075 281.965 0ZM311.492 270.266C311.483 276.055 308.369 281.606 302.834 285.7C297.298 289.794 289.793 292.097 281.965 292.103H155.415C147.587 292.097 140.082 289.794 134.546 285.7C129.011 281.606 125.897 276.055 125.888 270.266V27.6925C125.897 21.9029 129.011 16.3522 134.546 12.2584C140.082 8.16448 147.587 5.86165 155.415 5.85508H281.965C289.793 5.86164 297.298 8.16447 302.834 12.2584C308.369 16.3522 311.483 21.9029 311.492 27.6925V270.266Z" fill="#3F3D56"/>
<path d="M281.965 295.356H155.415C146.421 295.349 137.798 292.703 131.438 287.999C125.078 283.295 121.5 276.918 121.49 270.266V27.6925C121.5 21.0404 125.078 14.663 131.438 9.95934C137.798 5.25564 146.421 2.60978 155.415 2.60223H281.965C290.959 2.60978 299.582 5.25563 305.942 9.95933C312.302 14.663 315.88 21.0404 315.89 27.6925V270.266C315.88 276.918 312.302 283.295 305.942 287.999C299.582 292.703 290.959 295.349 281.965 295.356Z" fill="#E6E6E6"/>
<path d="M285.092 291.453H152.288C146.221 291.448 140.406 289.663 136.116 286.491C131.827 283.318 129.414 279.017 129.407 274.53V23.4279C129.414 18.9414 131.826 14.6401 136.116 11.4677C140.405 8.29523 146.221 6.51072 152.288 6.50563H169.607C170.609 6.50648 171.571 6.80143 172.28 7.32579C172.989 7.85014 173.387 8.56107 173.389 9.30261C173.392 11.4932 174.57 13.5934 176.664 15.1425C178.759 16.6915 181.599 17.5628 184.561 17.5652H251.06C254.022 17.5628 256.862 16.6915 258.956 15.1425C261.051 13.5934 262.229 11.4932 262.232 9.30259C262.233 8.56106 262.632 7.85013 263.341 7.32578C264.05 6.80143 265.011 6.50647 266.014 6.50562H285.092C291.158 6.5107 296.974 8.29521 301.264 11.4676C305.553 14.6401 307.966 18.9414 307.973 23.4279V274.53C307.966 279.017 305.553 283.318 301.264 286.491C296.974 289.663 291.159 291.448 285.092 291.453Z" fill="white"/>
<path d="M224.408 12.1981H208.574C208.108 12.1981 207.66 12.061 207.33 11.817C207 11.573 206.815 11.242 206.815 10.897C206.815 10.5519 207 10.2209 207.33 9.97692C207.66 9.73291 208.108 9.59583 208.574 9.59583H224.408C224.874 9.59583 225.322 9.73291 225.652 9.97692C225.981 10.2209 226.167 10.5519 226.167 10.897C226.167 11.242 225.981 11.573 225.652 11.817C225.322 12.061 224.874 12.1981 224.408 12.1981Z" fill="white"/>
<path d="M235.403 11.8728C235.889 11.8728 236.283 11.5815 236.283 11.2222C236.283 10.8629 235.889 10.5717 235.403 10.5717C234.917 10.5717 234.523 10.8629 234.523 11.2222C234.523 11.5815 234.917 11.8728 235.403 11.8728Z" fill="white"/>
<path d="M312.251 57.3289H124.953V58.8116H312.251V57.3289Z" fill="#E6E6E6"/>
<path d="M312.251 86.9818H124.953V88.4645H312.251V86.9818Z" fill="#E6E6E6"/>
<path d="M312.251 148.264H124.953V149.747H312.251V148.264Z" fill="#E6E6E6"/>
<path d="M312.251 209.547H124.953V211.03H312.251V209.547Z" fill="#E6E6E6"/>
<path d="M312.251 257.486H124.953V258.969H312.251V257.486Z" fill="#E6E6E6"/>
<path d="M260.974 58.0703H258.969V149.006H260.974V58.0703Z" fill="#E6E6E6"/>
<path d="M167.21 148.979H165.206V258.227H167.21V148.979Z" fill="#E6E6E6"/>
<path d="M307.973 178.947H166.208V180.429H307.973V178.947Z" fill="#E6E6E6"/>
<path d="M261.189 258.227H259.185V291.453H261.189V258.227Z" fill="#E6E6E6"/>
<path d="M259.637 118.23H129.073V119.713H259.637V118.23Z" fill="#E6E6E6"/>
<path d="M156.34 5.56883L154.49 6.14124L184.036 58.3564L185.885 57.784L156.34 5.56883Z" fill="#E6E6E6"/>
<path d="M247.335 17.5651H245.331V58.0702H247.335V17.5651Z" fill="#E6E6E6"/>
<path d="M299.029 80.557C299.029 93.8417 271.257 124.797 263.141 133.56C262.897 133.825 262.568 134.042 262.184 134.191C261.801 134.341 261.373 134.419 260.939 134.419C260.506 134.419 260.078 134.341 259.694 134.191C259.311 134.042 258.982 133.825 258.737 133.56C250.621 124.797 222.85 93.8417 222.85 80.557C222.85 73.0858 226.863 65.9206 234.006 60.6377C241.149 55.3547 250.837 52.3868 260.939 52.3868C271.041 52.3868 280.73 55.3547 287.873 60.6377C295.016 65.9206 299.029 73.0858 299.029 80.557Z" fill="#58AFC4"/>
<path d="M260.939 92.9124C271.642 92.9124 280.318 86.4956 280.318 78.5802C280.318 70.6647 271.642 64.2479 260.939 64.2479C250.237 64.2479 241.561 70.6647 241.561 78.5802C241.561 86.4956 250.237 92.9124 260.939 92.9124Z" fill="white"/>
<path d="M259.67 149.432L186.28 257.879L188.073 258.542L261.463 150.096L259.67 149.432Z" fill="#E6E6E6"/>
<path d="M365.363 173.287C366.229 173.631 367.185 173.83 368.166 173.871C369.147 173.912 370.128 173.793 371.04 173.524C371.952 173.254 372.773 172.84 373.446 172.31C374.118 171.78 374.625 171.147 374.931 170.457L398.806 170.152L391.797 162.579L370.199 164.03C368.596 163.726 366.899 163.868 365.429 164.429C363.959 164.989 362.818 165.929 362.222 167.07C361.626 168.211 361.616 169.474 362.195 170.62C362.774 171.765 363.902 172.714 365.364 173.287H365.363Z" fill="#FFB8B8"/>
<path d="M379.696 173.066C379.326 173.066 378.96 173.011 378.62 172.903C378.28 172.796 377.972 172.638 377.717 172.441C377.461 172.243 377.262 172.009 377.131 171.753C377.001 171.497 376.942 171.224 376.958 170.95L377.441 162.853C377.467 162.371 377.726 161.912 378.171 161.559C378.616 161.206 379.217 160.983 379.866 160.929L407.525 158.583L406.598 172.076L379.832 173.063C379.787 173.065 379.742 173.066 379.696 173.066Z" fill="#58AFC4"/>
<path d="M413.382 284.052L405.595 285.933L392.078 264.613L403.572 261.837L413.382 284.052Z" fill="#FFB8B8"/>
<path d="M417.834 289.156L392.724 295.221L392.62 294.986C392.201 294.037 392.039 293.036 392.142 292.04C392.246 291.045 392.614 290.074 393.225 289.183C393.836 288.293 394.679 287.5 395.704 286.85C396.729 286.201 397.918 285.707 399.201 285.397L399.202 285.397L414.538 281.692L417.834 289.156Z" fill="#2F2E41"/>
<path d="M436.32 292.969L428.128 292.968L424.23 269.598L436.322 269.598L436.32 292.969Z" fill="#FFB8B8"/>
<path d="M438.409 298.842L411.994 298.841V298.594C411.994 297.596 412.26 296.607 412.776 295.684C413.293 294.762 414.05 293.923 415.005 293.217C415.96 292.511 417.093 291.951 418.341 291.569C419.588 291.187 420.925 290.99 422.276 290.99H422.276L438.41 290.99L438.409 298.842Z" fill="#2F2E41"/>
<path d="M423.877 287.28C423.208 287.28 422.561 287.098 422.06 286.769C421.56 286.44 421.239 285.987 421.159 285.495L410.596 220.187L395.135 238.543L413.276 272.83C413.523 273.304 413.521 273.829 413.272 274.303C413.023 274.776 412.544 275.164 411.929 275.389L396.54 280.959C396.188 281.086 395.804 281.156 395.414 281.164C395.023 281.173 394.634 281.119 394.274 281.007C393.913 280.895 393.589 280.727 393.324 280.514C393.058 280.302 392.857 280.05 392.735 279.776L375.68 241.667C374.395 238.8 374.227 235.722 375.196 232.787L386.223 199.318L386.352 199.266L411.21 189.196L411.352 189.234L440.626 197.136L437.562 240.043L439.788 284.576C439.819 285.105 439.566 285.622 439.086 286.014C438.605 286.407 437.935 286.643 437.22 286.673L424.049 287.277C423.991 287.279 423.934 287.28 423.877 287.28Z" fill="#2F2E41"/>
<path d="M407.752 212.036C403.378 212.036 399.693 211.114 397.388 208.772L397.313 208.697L398.805 197.12L385.537 202.567C385.262 202.679 384.947 202.727 384.634 202.703C384.321 202.679 384.026 202.585 383.787 202.433C383.549 202.281 383.38 202.079 383.302 201.853C383.225 201.628 383.242 201.39 383.353 201.172L399.9 168.673L410.825 142.199C411.367 140.081 412.766 138.133 414.838 136.616C416.909 135.098 419.555 134.082 422.425 133.701C432.157 132.379 437.954 134.807 444.648 140.197C446.267 141.509 447.459 143.076 448.134 144.78C448.808 146.485 448.948 148.28 448.541 150.03L442.209 176.797L444.069 200.797C444.212 201.21 444.173 201.647 443.96 202.043C443.747 202.44 443.369 202.777 442.882 203.005C437.706 205.442 421.837 212.035 407.752 212.036Z" fill="#58AFC4"/>
<path d="M429.894 129.692C438.959 129.692 446.307 124.258 446.307 117.554C446.307 110.85 438.959 105.415 429.894 105.415C420.83 105.415 413.482 110.85 413.482 117.554C413.482 124.258 420.83 129.692 429.894 129.692Z" fill="#FFB8B8"/>
<path d="M434.169 204.08C435.062 203.777 435.855 203.333 436.491 202.779C437.127 202.226 437.591 201.575 437.85 200.875C438.11 200.174 438.158 199.44 437.992 198.724C437.826 198.007 437.45 197.327 436.891 196.73L450.966 182.464L438.571 182.029L427.105 195.643C425.811 196.405 424.941 197.492 424.658 198.697C424.375 199.902 424.7 201.142 425.57 202.182C426.441 203.222 427.797 203.99 429.382 204.339C430.967 204.689 432.67 204.597 434.169 204.08Z" fill="#FFB8B8"/>
<path d="M441.793 196.029C441.106 196.102 440.407 195.979 439.838 195.685L430.52 190.88C429.959 190.593 429.564 190.162 429.412 189.67C429.26 189.179 429.363 188.664 429.698 188.225L446.288 166.395L429.603 151.541C428.727 150.761 428.08 149.855 427.703 148.88C427.326 147.905 427.228 146.882 427.415 145.878C427.602 144.873 428.069 143.908 428.788 143.044C429.506 142.181 430.46 141.437 431.588 140.861C432.716 140.284 433.995 139.888 435.341 139.697C436.688 139.506 438.073 139.525 439.41 139.751C440.746 139.978 442.004 140.408 443.104 141.014C444.203 141.62 445.12 142.389 445.796 143.271L464.22 167.32C464.35 167.491 464.419 167.684 464.418 167.881C464.418 168.078 464.349 168.271 464.219 168.442L443.787 195.025C443.598 195.27 443.343 195.483 443.037 195.651C442.731 195.819 442.381 195.937 442.009 196C441.937 196.012 441.865 196.022 441.793 196.029Z" fill="#58AFC4"/>
<path d="M423.335 116.004C421.711 115.108 419.462 115.248 417.537 114.777C416.391 114.498 415.365 114 414.561 113.334C413.757 112.668 413.204 111.858 412.958 110.984C412.711 110.111 412.779 109.204 413.156 108.356C413.532 107.508 414.203 106.748 415.102 106.153C417.18 104.775 420.138 104.462 422.909 104.21C426.704 103.865 430.536 103.519 434.342 103.794C438.148 104.068 441.979 105.019 444.76 106.959C447.828 109.099 449.338 112.284 449.348 115.402C449.241 118.535 448.079 121.598 445.965 124.314C445.312 125.347 444.328 126.245 443.097 126.931C441.817 127.556 440.013 127.719 438.78 127.044C437.714 126.461 437.324 125.439 436.843 124.526C436.361 123.612 435.54 122.639 434.228 122.498C432.538 122.316 431.249 123.587 429.637 124.003C427.382 124.584 424.877 123.298 423.958 121.668C423.038 120.038 423.28 118.194 423.538 116.438" fill="#2F2E41"/>
<path d="M568 298.506C568 298.637 567.929 298.762 567.804 298.855C567.679 298.947 567.509 299 567.332 299H0.668235C0.491008 299 0.321039 298.948 0.195721 298.855C0.0704027 298.763 0 298.637 0 298.506C0 298.375 0.0704027 298.249 0.195721 298.156C0.321039 298.064 0.491008 298.012 0.668235 298.012H567.332C567.509 298.012 567.679 298.064 567.804 298.157C567.929 298.249 568 298.375 568 298.506Z" fill="#CCCCCC"/>
<path d="M260.939 155.183C265.737 155.183 269.626 152.307 269.626 148.759C269.626 145.21 265.737 142.334 260.939 142.334C256.142 142.334 252.252 145.21 252.252 148.759C252.252 152.307 256.142 155.183 260.939 155.183Z" fill="#58AFC4"/>
<path d="M383.24 78.5115C379.611 82.0876 363.682 86.2719 359.104 87.4183C358.966 87.453 358.818 87.4623 358.674 87.4453C358.53 87.4283 358.393 87.3855 358.276 87.3207C358.16 87.2559 358.066 87.171 358.004 87.0734C357.941 86.9757 357.912 86.8683 357.918 86.7604C358.127 83.1892 359.105 70.7079 362.733 67.1318C364.774 65.1206 367.811 63.7913 371.176 63.4363C374.542 63.0812 377.96 63.7295 380.68 65.2386C383.399 66.7476 385.196 68.9938 385.676 71.483C386.157 73.9721 385.28 76.5004 383.24 78.5115Z" fill="#58AFC4" fill-opacity="0.7"/>
<path d="M373.526 77.1129C377.128 77.1129 380.048 74.9534 380.048 72.2895C380.048 69.6257 377.128 67.4662 373.526 67.4662C369.924 67.4662 367.004 69.6257 367.004 72.2895C367.004 74.9534 369.924 77.1129 373.526 77.1129Z" fill="white"/>
<path d="M354.36 93.3429C355.975 93.3429 357.284 92.3748 357.284 91.1807C357.284 89.9865 355.975 89.0185 354.36 89.0185C352.746 89.0185 351.437 89.9865 351.437 91.1807C351.437 92.3748 352.746 93.3429 354.36 93.3429Z" fill="#58AFC4" fill-opacity="0.7"/>
<path d="M65.2712 176.603C70.6099 182.635 70.4392 202.796 70.2754 208.559C70.2706 208.734 70.2085 208.904 70.0945 209.057C69.9804 209.209 69.8178 209.338 69.6208 209.434C69.4238 209.529 69.1983 209.588 68.9638 209.604C68.7294 209.62 68.4931 209.594 68.2755 209.528C61.0687 207.332 36.018 199.381 30.6793 193.348C29.1906 191.668 28.164 189.788 27.6582 187.815C27.1524 185.841 27.1773 183.814 27.7315 181.847C28.2858 179.881 29.3584 178.015 30.8882 176.355C32.418 174.696 34.3749 173.275 36.6472 172.176C38.9195 171.076 41.4625 170.318 44.1311 169.945C46.7996 169.572 49.5413 169.592 52.1996 170.003C54.8578 170.414 57.3804 171.209 59.6233 172.341C61.8662 173.473 63.7853 174.922 65.2712 176.603Z" fill="#58AFC4" fill-opacity="0.62"/>
<path d="M47.1809 191.856C52.9893 191.856 57.6979 188.374 57.6979 184.078C57.6979 179.782 52.9893 176.3 47.1809 176.3C41.3725 176.3 36.6638 179.782 36.6638 184.078C36.6638 188.374 41.3725 191.856 47.1809 191.856Z" fill="white"/>
<path d="M75.3834 219.432C77.9871 219.432 80.0979 217.871 80.0979 215.945C80.0979 214.019 77.9871 212.458 75.3834 212.458C72.7796 212.458 70.6688 214.019 70.6688 215.945C70.6688 217.871 72.7796 219.432 75.3834 219.432Z" fill="#58AFC4" fill-opacity="0.62"/>
</svg>
